<svg width="264" height="263" viewBox="0 0 264 263" fill="none" xmlns="http://www.w3.org/2000/svg">
<path d="M107.194 134.314L137.386 117.608L174.106 138.811L143.919 155.517L107.194 134.314Z" fill="#E0E0E0"/>
<path d="M201.958 185.504C218.833 185.504 232.513 177.733 232.513 168.146C232.513 158.56 218.833 150.788 201.958 150.788C185.083 150.788 171.403 158.56 171.403 168.146C171.403 177.733 185.083 185.504 201.958 185.504Z" fill="#E0E0E0"/>
<path d="M158.437 211.762L94.4383 175.426L93.7703 175.816C87.1795 172.028 78.0324 169.682 67.9174 169.682C47.84 169.682 31.534 178.929 31.534 190.338C31.534 201.747 47.84 210.994 67.9174 210.994C68.6117 210.994 69.3061 210.994 69.9899 210.958L112.896 235.538C114.436 236.42 116.18 236.888 117.956 236.896C119.731 236.903 121.478 236.45 123.026 235.58L158.426 215.66C158.774 215.468 159.064 215.186 159.267 214.844C159.469 214.502 159.576 214.112 159.577 213.714C159.578 213.317 159.473 212.926 159.273 212.583C159.072 212.24 158.784 211.957 158.437 211.762Z" fill="#E0E0E0"/>
<path d="M164.707 65.3713C164.707 46.288 154.034 29.1509 139.89 20.9874C132.778 16.8793 126.551 16.0483 122.106 18.6572L110.176 25.4952C109.961 25.6162 109.745 25.7424 109.535 25.8792L109.666 25.7898L109.471 25.9055C105.295 28.6039 102.791 34.4846 102.791 43.7264C102.791 62.9885 113.469 79.9415 127.613 88.1103C134.719 92.2131 140.947 93.0862 145.392 90.4983L157.395 83.634C157.532 83.5604 157.669 83.4815 157.806 83.3973L158.016 83.2763C162.203 80.5832 164.707 74.692 164.707 65.3713Z" fill="#7DE4A1"/>
<path opacity="0.5" d="M144.322 89.9511C154.462 84.6364 155.202 66.0565 145.975 48.4519C136.748 30.8472 121.048 20.8843 110.908 26.1991C100.768 31.5138 100.027 50.0936 109.254 67.6983C118.481 85.3029 134.181 95.2659 144.322 89.9511Z" fill="white"/>
<path d="M133.489 61.4578C133.489 51.1325 130.554 46.3564 127.613 44.6574C124.673 42.9584 121.743 44.3523 121.743 54.6514C121.743 64.9505 124.678 69.7529 127.613 71.4518C130.548 73.1508 133.489 71.7832 133.489 61.4578Z" fill="#7DE4A1"/>
<path opacity="0.3" d="M133.489 61.4578C133.489 51.1325 130.554 46.3564 127.613 44.6574C124.673 42.9584 121.743 44.3523 121.743 54.6514C121.743 64.9505 124.678 69.7529 127.613 71.4518C130.548 73.1508 133.489 71.7832 133.489 61.4578Z" fill="black"/>
<path d="M233.45 155.628C233.45 136.518 222.772 119.413 208.622 111.244C201.516 107.141 195.283 106.305 190.844 108.914L178.919 115.752C178.698 115.867 178.483 115.994 178.272 116.13L178.404 116.046L178.209 116.157C174.033 118.85 171.529 124.73 171.529 133.972C171.529 153.234 182.207 170.187 196.351 178.356C203.457 182.459 209.685 183.332 214.13 180.749L226.154 173.885L226.564 173.648L226.775 173.527C230.941 170.84 233.45 164.954 233.45 155.628Z" fill="#7DE4A1"/>
<path opacity="0.5" d="M213.055 180.216C223.195 174.901 223.936 156.321 214.709 138.716C205.482 121.112 189.781 111.149 179.641 116.464C169.501 121.778 168.76 140.358 177.987 157.963C187.214 175.567 202.915 185.53 213.055 180.216Z" fill="white"/>
<path d="M202.226 151.714C202.226 141.389 199.291 136.613 196.351 134.919C193.411 133.225 190.481 134.609 190.481 144.913C190.481 155.217 193.416 160.02 196.351 161.713C199.286 163.407 202.226 162.045 202.226 151.714Z" fill="#7DE4A1"/>
<path opacity="0.3" d="M202.226 151.714C202.226 141.389 199.291 136.613 196.351 134.919C193.411 133.225 190.481 134.609 190.481 144.913C190.481 155.217 193.416 160.02 196.351 161.713C199.286 163.407 202.226 162.045 202.226 151.714Z" fill="black"/>
<path d="M194.741 54.1991L182.47 61.2264L118.671 132.273L141.231 145.297L153.498 138.264L217.296 67.2175L194.741 54.1991Z" fill="#7DE4A1"/>
<path opacity="0.3" d="M205.025 74.2502L141.231 145.297L153.498 138.264L217.296 67.2175L205.025 74.2502Z" fill="black"/>
<path opacity="0.5" d="M182.47 61.2264L205.025 74.2502L141.231 145.297L118.671 132.273L182.47 61.2264Z" fill="white"/>
<path d="M93.5546 55.3825L94.8118 59.0645C94.9888 59.595 95.3181 60.0615 95.7586 60.4058L98.5622 62.5098C99.6142 63.2778 100.009 64.9768 99.2617 65.3871L97.2314 66.4969C97.0745 66.6175 96.9565 66.7814 96.8919 66.9684C96.8274 67.1555 96.8193 67.3573 96.8685 67.5489L97.3471 71.0521C97.5207 72.3408 96.4476 72.6301 95.5219 71.5308L93.0129 68.5588C92.878 68.3689 92.704 68.21 92.5026 68.093C92.3011 67.976 92.077 67.9034 91.8451 67.8803L89.3309 67.954C88.4104 67.9855 87.3321 66.4548 87.5109 65.3713L87.9896 62.4204C88.0358 61.8961 87.9082 61.3712 87.6266 60.9266L85.5963 57.4708C84.8493 56.1978 85.2596 54.9723 86.2906 55.3983L89.0994 56.545C89.2579 56.6371 89.4464 56.6629 89.6238 56.6165C89.8012 56.5702 89.953 56.4556 90.0462 56.2978L91.2981 54.0886C91.761 53.268 93.076 54.036 93.5546 55.3825Z" fill="white"/>
<path d="M223.124 81.2565L224.381 84.9385C224.56 85.4669 224.887 85.9326 225.323 86.2798L228.132 88.3838C229.184 89.1517 229.573 90.856 228.831 91.261L226.796 92.3761C226.639 92.4968 226.522 92.6611 226.458 92.8482C226.395 93.0353 226.388 93.237 226.438 93.4281L226.917 96.9313C227.09 98.22 226.012 98.5093 225.091 97.4099L222.582 94.4328C222.446 94.2437 222.271 94.0858 222.069 93.9697C221.866 93.8536 221.642 93.7819 221.409 93.7595L218.9 93.8331C217.98 93.8331 216.902 92.334 217.075 91.2505L217.559 88.2996C217.614 87.7719 217.491 87.241 217.212 86.79L215.182 83.3289C214.435 82.0613 214.845 80.8357 215.876 81.2565L218.685 82.4084C218.844 82.4992 219.032 82.5241 219.209 82.4779C219.386 82.4317 219.537 82.318 219.632 82.1612L220.894 79.952C221.331 79.142 222.661 79.9099 223.124 81.2565Z" fill="white"/>
<path d="M211.247 94.3802L212.02 96.642C212.132 96.9691 212.334 97.2575 212.604 97.4731L214.34 98.767C214.982 99.2404 215.234 100.292 214.771 100.545L213.53 101.234C213.43 101.31 213.355 101.414 213.315 101.533C213.275 101.652 213.271 101.781 213.304 101.902L213.598 104.069C213.709 104.863 213.041 105.037 212.473 104.364L210.895 102.523C210.811 102.405 210.703 102.307 210.578 102.235C210.452 102.163 210.313 102.119 210.169 102.107L208.617 102.154C208.049 102.154 207.381 101.223 207.492 100.576L207.786 98.7513C207.814 98.4269 207.737 98.1022 207.565 97.8255L206.308 95.6899C205.845 94.9009 206.098 94.1435 206.739 94.4065L208.475 95.1166C208.573 95.1726 208.689 95.1879 208.798 95.1594C208.907 95.1309 209.001 95.0608 209.059 94.964L209.837 93.5965C210.137 93.0705 210.958 93.5491 211.247 94.3802Z" fill="white"/>
<path d="M85.6541 38.0771L86.4273 40.3389C86.5406 40.6664 86.745 40.9547 87.0164 41.17L88.7522 42.464C89.3887 42.9374 89.6412 43.9894 89.1836 44.2419L87.9264 44.9309C87.8264 45.0058 87.7513 45.1091 87.7109 45.2274C87.6706 45.3456 87.6669 45.4733 87.7002 45.5937L88.0001 47.7608C88.1053 48.5603 87.4425 48.7339 86.8692 48.0554L85.3175 46.2196C85.234 46.1024 85.1266 46.0043 85.0024 45.9318C84.8782 45.8592 84.7399 45.8139 84.5968 45.7988L83.0188 45.8462C82.4508 45.8462 81.7827 44.9204 81.8932 44.2682L82.1878 42.4429C82.2215 42.1182 82.1436 41.7917 81.9668 41.5172L80.7097 39.3764C80.2468 38.5926 80.5046 37.8352 81.141 38.0982L82.8768 38.8083C82.9748 38.8643 83.0907 38.8796 83.1999 38.8511C83.309 38.8226 83.4026 38.7525 83.4607 38.6557L84.2392 37.2829C84.5442 36.7674 85.3701 37.2408 85.6541 38.0771Z" fill="white"/>
<path d="M79.6367 110.102C79.6367 110.102 78.9319 140.915 73.9033 149.126C68.8748 157.337 47.9663 174.569 47.9663 174.569L44.4158 169.798C44.4158 169.798 55.6511 149.058 60.7902 146.507L64.8088 109.934L79.6367 110.102Z" fill="#263238"/>
<path d="M40.5917 185.557L43.3479 184.374L42.1539 182.101L40.5917 185.557Z" fill="#7DE4A1"/>
<path d="M39.1662 175.81C38.7816 176.54 38.5456 177.34 38.4719 178.161L38.0616 182.753L40.5917 185.557L42.1697 182.101L39.1662 175.81Z" fill="#7DE4A1"/>
<g style="mix-blend-mode:overlay" opacity="0.5">
<path d="M40.5917 185.557L43.3479 184.374L42.1539 182.101L40.5917 185.557Z" fill="black"/>
</g>
<g style="mix-blend-mode:overlay" opacity="0.2">
<path d="M39.1662 175.81C38.7816 176.54 38.5456 177.34 38.4719 178.161L38.0616 182.753L40.5917 185.557L42.1697 182.101L39.1662 175.81Z" fill="black"/>
</g>
<path d="M47.7401 164.049C47.7401 164.049 48.6763 169.277 53.384 169.798C53.384 169.798 54.0363 170.555 52.453 172.244C50.8698 173.932 47.9662 177.462 47.9662 177.462C47.9662 177.462 48.2661 182.964 50.4016 185.042C51.4536 186.094 52.5635 187.146 53.3946 188.019C53.5587 188.184 53.6811 188.386 53.7517 188.608C53.8223 188.83 53.839 189.066 53.8004 189.296C53.7619 189.525 53.6692 189.743 53.53 189.929C53.3908 190.116 53.2092 190.267 53.0001 190.37C51.7085 191.006 50.2575 191.246 48.83 191.059C47.4025 190.871 46.0623 190.266 44.9786 189.318L44.1212 188.566C43.2289 187.773 42.6659 186.676 42.5432 185.489L42.175 182.112L39.2872 177.904C39.0813 177.602 38.9629 177.249 38.9453 176.884C38.9277 176.519 39.0114 176.157 39.1873 175.837C41.002 172.528 46.5303 162.786 47.7401 164.049Z" fill="#7DE4A1"/>
<path d="M61.2951 108.082C61.2951 108.082 51.7324 118.024 55.204 130.053C58.6756 142.083 66.4446 158.605 66.4446 158.605C66.4446 158.605 65.2716 162.187 68.5486 169.798C71.8256 177.409 74.8606 185.883 74.8606 185.883C74.8606 185.883 78.0166 187.677 80.9412 184.552L72.6146 121.711C72.6146 121.711 78.9687 117.256 78.1376 109.86L61.2951 108.082Z" fill="#37474F"/>
<path d="M75.455 193.826L76.5911 198.854L79.4631 200.417L79.3526 196.75L75.455 193.826Z" fill="#7DE4A1"/>
<path opacity="0.2" d="M75.455 193.826L76.5911 198.854L79.4631 200.417L79.3526 196.75L75.455 193.826Z" fill="black"/>
<path d="M79.4631 200.417L80.9096 199.464L79.3527 196.75L79.4631 200.417Z" fill="#7DE4A1"/>
<path opacity="0.5" d="M79.4631 200.417L80.9096 199.464L79.3527 196.75L79.4631 200.417Z" fill="black"/>
<path d="M73.3352 181.775C73.3352 181.775 77.3802 183.627 80.4204 180.634L80.2837 179.687C80.2837 179.687 81.3357 179.377 81.6934 181.265C82.051 183.153 83.9604 192.337 83.9604 192.337C83.9604 192.337 87.4057 196.771 89.92 197.776C92.4343 198.781 92.9445 200.19 91.2929 201.416L91.2455 201.453C90.2846 202.166 89.1472 202.603 87.956 202.717C86.7649 202.831 85.5651 202.618 84.4864 202.1L82.535 201.169C81.7659 200.797 81.145 200.176 80.7729 199.407L80.5362 198.917C79.9448 197.694 79.0087 196.67 77.843 195.972L76.4018 195.109C76.1718 194.97 75.9716 194.787 75.8127 194.571C75.6538 194.354 75.5394 194.108 75.476 193.847L72.846 182.843C72.7959 182.637 72.8176 182.421 72.9076 182.23C72.9975 182.038 73.1503 181.883 73.3405 181.791L73.3352 181.775Z" fill="#7DE4A1"/>
<path d="M76.4123 146.612C76.1971 146.612 75.9879 146.541 75.8172 146.41C75.6465 146.279 75.5237 146.095 75.468 145.887C75.4123 145.679 75.4267 145.459 75.509 145.26C75.5912 145.061 75.7368 144.895 75.9231 144.787L107.278 126.65C107.389 126.582 107.513 126.536 107.643 126.517C107.772 126.497 107.904 126.503 108.03 126.535C108.157 126.567 108.276 126.624 108.38 126.703C108.485 126.782 108.572 126.881 108.638 126.994C108.703 127.108 108.745 127.233 108.761 127.362C108.777 127.492 108.767 127.624 108.732 127.75C108.696 127.875 108.636 127.993 108.554 128.095C108.473 128.197 108.371 128.282 108.256 128.344L76.9225 146.48C76.767 146.568 76.591 146.614 76.4123 146.612Z" fill="#37474F"/>
<path d="M77.9272 174.227C77.7561 174.228 77.5879 174.183 77.44 174.097C77.292 174.011 77.1697 173.887 77.0856 173.738C76.9555 173.514 76.9195 173.247 76.9856 172.997C77.0517 172.746 77.2144 172.532 77.438 172.402L108.772 154.271C108.883 154.206 109.005 154.165 109.132 154.148C109.259 154.131 109.388 154.139 109.512 154.172C109.636 154.205 109.752 154.262 109.854 154.34C109.956 154.418 110.041 154.515 110.105 154.626C110.169 154.736 110.211 154.859 110.228 154.986C110.245 155.113 110.237 155.242 110.204 155.366C110.171 155.49 110.114 155.606 110.036 155.708C109.958 155.809 109.861 155.895 109.75 155.959L78.4164 174.106C78.2669 174.189 78.0981 174.231 77.9272 174.227Z" fill="#37474F"/>
<path d="M76.3019 153.192C76.2165 153.193 76.1325 153.171 76.0585 153.129C75.9845 153.086 75.9233 153.024 75.8811 152.95C75.8483 152.895 75.8269 152.833 75.8181 152.77C75.8093 152.706 75.8134 152.641 75.8301 152.579C75.8467 152.516 75.8756 152.458 75.9151 152.407C75.9546 152.356 76.0038 152.314 76.0599 152.282L107.62 134.02C107.676 133.985 107.738 133.963 107.802 133.953C107.867 133.943 107.933 133.946 107.996 133.962C108.059 133.978 108.119 134.007 108.171 134.046C108.223 134.086 108.267 134.135 108.3 134.192C108.332 134.248 108.353 134.311 108.362 134.376C108.37 134.441 108.365 134.506 108.347 134.569C108.329 134.632 108.299 134.691 108.258 134.742C108.217 134.793 108.167 134.835 108.109 134.866L76.5491 153.129C76.4731 153.17 76.3882 153.192 76.3019 153.192Z" fill="#37474F"/>
<path d="M77.1908 160.188C77.0838 160.188 76.9799 160.152 76.895 160.087C76.8101 160.022 76.749 159.93 76.7209 159.827C76.6929 159.724 76.6995 159.614 76.7397 159.515C76.7799 159.416 76.8515 159.333 76.9436 159.278L108.504 141.015C108.616 140.955 108.747 140.94 108.87 140.975C108.992 141.009 109.096 141.09 109.16 141.201C109.224 141.311 109.242 141.442 109.211 141.566C109.18 141.689 109.101 141.795 108.993 141.862L77.4327 160.125C77.3589 160.167 77.2755 160.188 77.1908 160.188Z" fill="#37474F"/>
<path d="M77.1908 167.215C77.0838 167.215 76.9799 167.179 76.895 167.114C76.8101 167.049 76.749 166.958 76.7209 166.854C76.6929 166.751 76.6995 166.642 76.7397 166.542C76.7799 166.443 76.8515 166.36 76.9436 166.305L108.504 148.043C108.616 147.982 108.747 147.967 108.87 148.002C108.992 148.037 109.096 148.118 109.16 148.228C109.224 148.338 109.242 148.469 109.211 148.593C109.18 148.716 109.101 148.823 108.993 148.89L77.4327 167.152C77.3589 167.194 77.2755 167.216 77.1908 167.215Z" fill="#37474F"/>
<path d="M105.847 157.842C105.722 157.842 105.601 157.794 105.51 157.708C105.419 157.622 105.365 157.504 105.358 157.379L103.78 129.538C103.772 129.408 103.817 129.281 103.903 129.184C103.989 129.086 104.111 129.028 104.24 129.02C104.37 129.012 104.498 129.056 104.595 129.143C104.692 129.229 104.751 129.35 104.758 129.48L106.336 157.327C106.341 157.392 106.332 157.457 106.311 157.518C106.29 157.58 106.257 157.637 106.214 157.686C106.171 157.735 106.119 157.775 106.061 157.803C106.002 157.832 105.939 157.849 105.874 157.853L105.847 157.842Z" fill="#37474F"/>
<path d="M101.808 160.193C101.683 160.194 101.563 160.146 101.472 160.061C101.381 159.976 101.326 159.86 101.318 159.736L99.7404 131.889C99.7308 131.822 99.7352 131.754 99.7535 131.688C99.7717 131.623 99.8034 131.562 99.8464 131.509C99.8895 131.457 99.943 131.414 100.004 131.383C100.064 131.353 100.13 131.335 100.198 131.331C100.266 131.328 100.334 131.338 100.397 131.362C100.461 131.386 100.519 131.423 100.567 131.47C100.616 131.518 100.654 131.575 100.679 131.638C100.704 131.701 100.716 131.769 100.714 131.837L102.292 159.678C102.297 159.743 102.29 159.808 102.27 159.87C102.25 159.932 102.217 159.989 102.175 160.038C102.132 160.087 102.08 160.127 102.021 160.156C101.963 160.184 101.899 160.201 101.834 160.204L101.808 160.193Z" fill="#37474F"/>
<path d="M97.7627 162.534C97.6379 162.534 97.5179 162.486 97.4277 162.4C97.3376 162.314 97.2842 162.196 97.2788 162.071L95.7008 134.23C95.695 134.165 95.7024 134.1 95.7225 134.038C95.7426 133.976 95.775 133.919 95.8177 133.87C95.8604 133.82 95.9126 133.781 95.9712 133.752C96.0297 133.724 96.0934 133.707 96.1584 133.704C96.2231 133.699 96.2881 133.707 96.3497 133.727C96.4113 133.748 96.4683 133.78 96.5172 133.823C96.5662 133.865 96.6062 133.917 96.6349 133.975C96.6636 134.033 96.6804 134.097 96.6844 134.162L98.2624 162.008C98.2674 162.073 98.2595 162.138 98.2391 162.199C98.2187 162.261 98.1863 162.318 98.1437 162.367C98.1011 162.416 98.0492 162.456 97.991 162.484C97.9328 162.513 97.8695 162.53 97.8048 162.534H97.7627Z" fill="#37474F"/>
<path d="M93.723 164.901C93.5985 164.901 93.4786 164.854 93.3878 164.769C93.2969 164.684 93.2418 164.568 93.2338 164.443L91.6558 136.597C91.6461 136.53 91.6506 136.461 91.6688 136.396C91.6871 136.33 91.7187 136.27 91.7618 136.217C91.8049 136.165 91.8584 136.122 91.919 136.091C91.9795 136.06 92.0458 136.043 92.1136 136.039C92.1814 136.035 92.2492 136.046 92.3127 136.07C92.3762 136.094 92.4341 136.131 92.4825 136.178C92.531 136.226 92.569 136.283 92.5942 136.346C92.6194 136.409 92.6312 136.476 92.6289 136.544L94.2069 164.386C94.2119 164.451 94.2038 164.516 94.1831 164.578C94.1624 164.64 94.1295 164.697 94.0864 164.746C94.0432 164.795 93.9907 164.835 93.9319 164.863C93.8731 164.892 93.8092 164.908 93.744 164.912L93.723 164.901Z" fill="#37474F"/>
<path d="M89.6833 167.268C89.5583 167.267 89.4384 167.219 89.3477 167.133C89.2569 167.047 89.2021 166.93 89.1941 166.805L87.6161 138.959C87.6126 138.894 87.6219 138.83 87.6433 138.769C87.6647 138.709 87.6978 138.653 87.7408 138.605C87.7838 138.557 87.8357 138.518 87.8938 138.49C87.9518 138.463 88.0147 138.447 88.079 138.443C88.1432 138.44 88.2075 138.449 88.2682 138.47C88.3288 138.492 88.3847 138.525 88.4326 138.568C88.4804 138.611 88.5194 138.663 88.5472 138.721C88.5749 138.779 88.591 138.842 88.5945 138.906L90.1725 166.753C90.1767 166.817 90.1681 166.883 90.1472 166.944C90.1262 167.006 90.0933 167.063 90.0503 167.112C90.0073 167.161 89.955 167.2 89.8966 167.229C89.8381 167.258 89.7746 167.274 89.7096 167.279L89.6833 167.268Z" fill="#37474F"/>
<path d="M85.6437 169.609C85.5183 169.609 85.3978 169.561 85.3067 169.475C85.2157 169.389 85.1612 169.271 85.1545 169.146L83.5765 141.305C83.5688 141.175 83.613 141.047 83.6993 140.95C83.7856 140.853 83.907 140.794 84.0367 140.787C84.1665 140.779 84.2939 140.823 84.3911 140.909C84.4883 140.996 84.5472 141.117 84.5548 141.247L86.1328 169.093C86.1378 169.158 86.1299 169.223 86.1096 169.285C86.0892 169.346 86.0568 169.403 86.0142 169.452C85.9716 169.501 85.9197 169.541 85.8615 169.57C85.8033 169.598 85.74 169.615 85.6752 169.619L85.6437 169.609Z" fill="#37474F"/>
<path d="M81.5986 171.965C81.4746 171.963 81.356 171.914 81.2664 171.828C81.1767 171.742 81.1226 171.626 81.1147 171.502L79.5367 143.656C79.5271 143.589 79.5315 143.52 79.5498 143.455C79.568 143.389 79.5997 143.329 79.6427 143.276C79.6858 143.224 79.7393 143.181 79.7999 143.15C79.8604 143.119 79.9267 143.102 79.9945 143.098C80.0623 143.094 80.1301 143.105 80.1936 143.129C80.2572 143.153 80.315 143.19 80.3635 143.237C80.4119 143.285 80.45 143.342 80.4752 143.405C80.5004 143.468 80.5122 143.535 80.5098 143.603L82.0878 171.45C82.0943 171.515 82.0875 171.58 82.0677 171.643C82.0479 171.705 82.0155 171.762 81.9726 171.812C81.9298 171.861 81.8773 171.901 81.8184 171.929C81.7595 171.957 81.6955 171.973 81.6302 171.976L81.5986 171.965Z" fill="#37474F"/>
<path d="M124.278 97.31L102.986 85.0174V99.3772L124.278 111.67L129.296 110.36V104.39L124.278 97.31ZM126.093 106.978C125.74 106.747 125.447 106.436 125.237 106.071C125.026 105.705 124.905 105.295 124.883 104.874C124.883 104.101 125.409 103.79 126.093 104.174C126.447 104.404 126.741 104.715 126.951 105.081C127.161 105.446 127.282 105.857 127.303 106.278C127.303 107.03 126.74 107.341 126.093 106.957V106.978Z" fill="#7DE4A1"/>
<path opacity="0.5" d="M124.278 97.31L102.986 85.0174V99.3772L124.278 111.67L129.296 110.36V104.39L124.278 97.31ZM126.093 106.978C125.74 106.747 125.447 106.436 125.237 106.071C125.026 105.705 124.905 105.295 124.883 104.874C124.883 104.101 125.409 103.79 126.093 104.174C126.447 104.404 126.741 104.715 126.951 105.081C127.161 105.446 127.282 105.857 127.303 106.278C127.303 107.03 126.74 107.341 126.093 106.957V106.978Z" fill="white"/>
<path d="M126.319 131.663C126.211 131.655 126.109 131.614 126.025 131.546C125.941 131.478 125.88 131.385 125.851 131.281C125.822 131.177 125.825 131.067 125.861 130.965C125.897 130.863 125.963 130.774 126.051 130.711L129.896 128.344C131.141 127.574 132.169 126.499 132.884 125.222C133.599 123.945 133.977 122.507 133.983 121.043V113.853C133.98 112.972 133.752 112.106 133.322 111.338C132.891 110.569 132.271 109.923 131.521 109.461L126.214 106.194C126.137 106.171 126.067 106.131 126.008 106.076C125.949 106.022 125.904 105.955 125.875 105.88C125.846 105.805 125.835 105.725 125.842 105.645C125.849 105.565 125.874 105.488 125.915 105.419C125.956 105.35 126.013 105.292 126.08 105.249C126.148 105.205 126.224 105.178 126.304 105.168C126.383 105.159 126.464 105.168 126.539 105.194C126.615 105.221 126.684 105.264 126.74 105.321L132.084 108.587C132.982 109.141 133.724 109.915 134.241 110.835C134.757 111.756 135.03 112.792 135.035 113.847V121.038C135.028 122.677 134.605 124.287 133.804 125.717C133.004 127.147 131.852 128.35 130.459 129.212L126.598 131.579C126.515 131.633 126.418 131.662 126.319 131.663Z" fill="#7DE4A1"/>
<path opacity="0.9" d="M126.319 131.663C126.211 131.655 126.109 131.614 126.025 131.546C125.941 131.478 125.88 131.385 125.851 131.281C125.822 131.177 125.825 131.067 125.861 130.965C125.897 130.863 125.963 130.774 126.051 130.711L129.896 128.344C131.141 127.574 132.169 126.499 132.884 125.222C133.599 123.945 133.977 122.507 133.983 121.043V113.853C133.98 112.972 133.752 112.106 133.322 111.338C132.891 110.569 132.271 109.923 131.521 109.461L126.214 106.194C126.137 106.171 126.067 106.131 126.008 106.076C125.949 106.022 125.904 105.955 125.875 105.88C125.846 105.805 125.835 105.725 125.842 105.645C125.849 105.565 125.874 105.488 125.915 105.419C125.956 105.35 126.013 105.292 126.08 105.249C126.148 105.205 126.224 105.178 126.304 105.168C126.383 105.159 126.464 105.168 126.539 105.194C126.615 105.221 126.684 105.264 126.74 105.321L132.084 108.587C132.982 109.141 133.724 109.915 134.241 110.835C134.757 111.756 135.03 112.792 135.035 113.847V121.038C135.028 122.677 134.605 124.287 133.804 125.717C133.004 127.147 131.852 128.35 130.459 129.212L126.598 131.579C126.515 131.633 126.418 131.662 126.319 131.663Z" fill="black"/>
<path d="M119.376 195.593C119.376 197.85 117.798 198.749 115.841 197.634C114.81 196.963 113.953 196.059 113.337 194.994C112.722 193.929 112.367 192.734 112.301 191.506C112.301 189.25 113.879 188.35 115.841 189.465C116.87 190.137 117.727 191.042 118.341 192.107C118.955 193.171 119.31 194.366 119.376 195.593Z" fill="#455A64"/>
<path d="M117.041 194.247C117.041 195.015 116.515 195.33 115.836 194.946C115.483 194.715 115.19 194.404 114.98 194.039C114.769 193.673 114.648 193.263 114.626 192.842C114.626 192.069 115.152 191.759 115.836 192.143C116.188 192.373 116.481 192.684 116.691 193.05C116.9 193.416 117.02 193.826 117.041 194.247Z" fill="#263238"/>
<path d="M120.986 194.662C120.919 193.433 120.564 192.238 119.949 191.172C119.334 190.107 118.476 189.201 117.446 188.529C116.052 187.724 114.852 187.966 114.29 188.987C114.848 189.006 115.392 189.171 115.868 189.465C116.892 190.14 117.743 191.046 118.353 192.111C118.962 193.175 119.313 194.368 119.376 195.593C119.376 196.708 118.987 197.492 118.361 197.865L119.902 196.982C120.565 196.624 120.986 195.819 120.986 194.662Z" fill="#263238"/>
<path d="M115.989 187.856C113.527 186.43 111.533 187.582 111.533 190.423L120.428 195.567C120.428 192.726 118.445 189.276 115.989 187.856Z" fill="#7DE4A1"/>
<path d="M117.588 186.604C115.778 185.552 114.226 185.909 113.527 187.288C114.389 187.181 115.261 187.382 115.989 187.856C118.445 189.276 120.444 192.726 120.444 195.567L122.022 194.32C122.043 191.464 120.049 188.024 117.588 186.604Z" fill="#7DE4A1"/>
<path opacity="0.5" d="M117.588 186.604C115.778 185.552 114.226 185.909 113.527 187.288C114.389 187.181 115.261 187.382 115.989 187.856C118.445 189.276 120.444 192.726 120.444 195.567L122.022 194.32C122.043 191.464 120.049 188.024 117.588 186.604Z" fill="black"/>
<path d="M145.392 210.626C145.392 212.883 143.814 213.782 141.852 212.667C140.821 211.996 139.963 211.092 139.348 210.027C138.733 208.962 138.378 207.767 138.312 206.539C138.312 204.283 139.89 203.383 141.852 204.498C142.882 205.17 143.739 206.075 144.354 207.139C144.969 208.204 145.325 209.399 145.392 210.626Z" fill="#455A64"/>
<path d="M143.046 209.28C143.046 210.048 142.52 210.363 141.836 209.979C141.483 209.748 141.19 209.437 140.98 209.072C140.77 208.706 140.648 208.296 140.626 207.875C140.626 207.102 141.152 206.792 141.836 207.176C142.19 207.406 142.484 207.716 142.694 208.082C142.905 208.448 143.025 208.858 143.046 209.28Z" fill="#263238"/>
<path d="M147.002 209.695C146.935 208.467 146.58 207.272 145.966 206.207C145.352 205.141 144.496 204.235 143.467 203.562C142.073 202.757 140.868 202.999 140.311 204.02C140.87 204.039 141.414 204.204 141.889 204.498C142.919 205.17 143.776 206.075 144.391 207.139C145.006 208.204 145.362 209.399 145.429 210.626C145.429 211.741 145.04 212.525 144.414 212.899L145.95 212.015C146.581 211.657 147.002 210.852 147.002 209.695Z" fill="#263238"/>
<path d="M141.994 202.889C139.532 201.463 137.539 202.615 137.539 205.456L146.449 210.6C146.46 207.77 144.466 204.309 141.994 202.889Z" fill="#7DE4A1"/>
<path d="M143.604 201.637C141.799 200.585 140.242 200.943 139.548 202.321C140.408 202.211 141.28 202.413 142.005 202.889C144.466 204.309 146.46 207.759 146.46 210.6L148.038 209.353C148.059 206.508 146.065 203.036 143.604 201.637Z" fill="#7DE4A1"/>
<path opacity="0.5" d="M143.604 201.637C141.799 200.585 140.242 200.943 139.548 202.321C140.408 202.211 141.28 202.413 142.005 202.889C144.466 204.309 146.46 207.759 146.46 210.6L148.038 209.353C148.059 206.508 146.065 203.036 143.604 201.637Z" fill="black"/>
<path d="M114.148 228.736C114.148 230.993 112.57 231.892 110.613 230.777C109.582 230.107 108.724 229.202 108.109 228.137C107.494 227.072 107.139 225.877 107.073 224.649C107.073 222.393 108.651 221.493 110.613 222.608C111.642 223.28 112.498 224.185 113.113 225.25C113.727 226.315 114.081 227.509 114.148 228.736Z" fill="#455A64"/>
<path d="M111.817 227.39C111.817 228.163 111.291 228.473 110.613 228.089C110.26 227.858 109.967 227.548 109.756 227.182C109.546 226.816 109.425 226.406 109.403 225.985C109.403 225.212 109.929 224.902 110.613 225.286C110.964 225.518 111.256 225.829 111.465 226.195C111.674 226.56 111.795 226.969 111.817 227.39Z" fill="#263238"/>
<path d="M115.762 227.805C115.696 226.577 115.341 225.382 114.726 224.318C114.111 223.253 113.253 222.348 112.222 221.677C110.828 220.873 109.629 221.109 109.066 222.13C109.625 222.149 110.169 222.314 110.644 222.608C111.674 223.28 112.53 224.185 113.144 225.25C113.758 226.315 114.113 227.509 114.179 228.736C114.179 229.852 113.79 230.635 113.164 231.014L114.705 230.125C115.342 229.767 115.762 228.963 115.762 227.805Z" fill="#263238"/>
<path d="M110.765 220.999C108.304 219.579 106.31 220.731 106.31 223.571L115.221 228.715C115.221 225.87 113.227 222.419 110.765 220.999Z" fill="#7DE4A1"/>
<path d="M112.364 219.747C110.555 218.695 109.003 219.053 108.304 220.436C109.165 220.322 110.039 220.522 110.765 220.999C113.227 222.419 115.221 225.87 115.221 228.715L116.799 227.463C116.82 224.602 114.826 221.167 112.364 219.747Z" fill="#7DE4A1"/>
<path opacity="0.5" d="M112.364 219.747C110.555 218.695 109.003 219.053 108.304 220.436C109.165 220.322 110.039 220.522 110.765 220.999C113.227 222.419 115.221 225.87 115.221 228.715L116.799 227.463C116.82 224.602 114.826 221.167 112.364 219.747Z" fill="black"/>
<path d="M146.807 209.911C146.591 209.91 146.381 209.838 146.21 209.706C146.039 209.574 145.917 209.389 145.862 209.18C145.808 208.971 145.824 208.75 145.908 208.551C145.992 208.352 146.14 208.186 146.328 208.08C146.556 207.952 146.745 207.766 146.877 207.54C147.009 207.315 147.079 207.058 147.079 206.797C147.079 206.536 147.009 206.279 146.877 206.054C146.745 205.828 146.556 205.642 146.328 205.513L113.38 187.025C112.337 186.444 111.459 185.608 110.826 184.597C110.194 183.585 109.827 182.43 109.761 181.239L106.194 117.193C106.144 116.317 105.877 115.468 105.418 114.721C104.959 113.974 104.322 113.352 103.564 112.911L101.261 111.565C100.952 111.389 100.603 111.296 100.248 111.296C99.8929 111.296 99.544 111.389 99.2354 111.565L97.2997 112.643C97.0756 112.749 96.8196 112.765 96.5835 112.69C96.3474 112.614 96.1489 112.452 96.028 112.235C95.9071 112.019 95.8729 111.765 95.9322 111.524C95.9915 111.283 96.14 111.074 96.3477 110.939L98.2781 109.887C98.8847 109.546 99.5702 109.37 100.266 109.376C100.962 109.383 101.644 109.571 102.244 109.923L104.548 111.27C105.584 111.873 106.453 112.723 107.078 113.745C107.704 114.767 108.065 115.928 108.13 117.124L111.696 181.154C111.743 182.021 112.009 182.861 112.469 183.597C112.929 184.333 113.568 184.94 114.326 185.362L147.275 203.851C147.806 204.149 148.248 204.582 148.556 205.107C148.864 205.633 149.026 206.23 149.026 206.839C149.026 207.448 148.864 208.045 148.556 208.571C148.248 209.096 147.806 209.529 147.275 209.827C147.128 209.892 146.967 209.921 146.807 209.911Z" fill="#263238"/>
<path d="M119.25 190.665C118.999 190.663 118.753 190.598 118.534 190.475L112.606 187.151C112.267 186.961 112.018 186.644 111.912 186.271C111.807 185.897 111.854 185.496 112.044 185.157C112.233 184.818 112.55 184.569 112.924 184.463C113.298 184.357 113.698 184.405 114.037 184.594L119.965 187.919C120.247 188.078 120.469 188.326 120.595 188.624C120.722 188.922 120.746 189.254 120.664 189.567C120.583 189.88 120.4 190.158 120.144 190.356C119.888 190.555 119.574 190.663 119.25 190.665Z" fill="#7DE4A1"/>
<path d="M121.827 191.622C121.659 191.621 121.495 191.578 121.348 191.496L119.281 190.333C119.074 190.198 118.925 189.988 118.866 189.748C118.806 189.507 118.841 189.253 118.962 189.036C119.082 188.82 119.281 188.658 119.517 188.582C119.753 188.506 120.009 188.523 120.233 188.629L122.306 189.791C122.494 189.897 122.642 190.063 122.726 190.262C122.81 190.461 122.826 190.682 122.772 190.891C122.717 191.1 122.595 191.285 122.424 191.417C122.253 191.549 122.043 191.621 121.827 191.622Z" fill="#253239"/>
<path d="M145.808 205.566C145.556 205.568 145.31 205.502 145.092 205.377L139.164 202.052C138.996 201.958 138.849 201.832 138.729 201.681C138.61 201.53 138.522 201.357 138.47 201.172C138.418 200.987 138.402 200.793 138.425 200.602C138.447 200.411 138.507 200.227 138.601 200.059C138.791 199.72 139.108 199.47 139.482 199.365C139.667 199.312 139.86 199.297 140.051 199.32C140.242 199.342 140.427 199.402 140.595 199.496L146.528 202.826C146.812 202.983 147.035 203.231 147.163 203.53C147.29 203.829 147.315 204.162 147.232 204.476C147.149 204.79 146.965 205.068 146.707 205.265C146.449 205.462 146.132 205.568 145.808 205.566Z" fill="#7DE4A1"/>
<path d="M146.807 209.911C146.591 209.91 146.381 209.838 146.21 209.706C146.039 209.574 145.917 209.389 145.862 209.18C145.808 208.971 145.824 208.75 145.908 208.551C145.992 208.352 146.14 208.186 146.328 208.08C146.556 207.952 146.745 207.766 146.877 207.54C147.009 207.315 147.079 207.058 147.079 206.797C147.079 206.536 147.009 206.279 146.877 206.054C146.745 205.828 146.556 205.642 146.328 205.513C146.114 205.38 145.96 205.17 145.898 204.926C145.835 204.682 145.869 204.423 145.992 204.204C146.116 203.984 146.319 203.821 146.56 203.747C146.801 203.674 147.061 203.696 147.286 203.809C147.817 204.107 148.259 204.54 148.567 205.065C148.874 205.59 149.037 206.188 149.037 206.797C149.037 207.406 148.874 208.003 148.567 208.528C148.259 209.054 147.817 209.487 147.286 209.785C147.139 209.867 146.975 209.91 146.807 209.911Z" fill="#455A64"/>
<path d="M87.0909 215.992C88.4721 215.194 88.4719 212.608 87.0906 210.216C85.7093 207.823 83.4698 206.53 82.0886 207.328C80.7074 208.125 80.7076 210.711 82.0889 213.104C83.4702 215.496 85.7097 216.789 87.0909 215.992Z" fill="#455A64"/>
<path d="M85.8014 212.357C85.8014 213.13 85.2754 213.44 84.5916 213.056C84.2395 212.825 83.9469 212.514 83.7376 212.148C83.5283 211.783 83.4082 211.373 83.3871 210.952C83.3871 210.179 83.9131 209.869 84.5916 210.253C84.9445 210.484 85.2379 210.795 85.4481 211.16C85.6583 211.526 85.7793 211.936 85.8014 212.357Z" fill="#263238"/>
<path d="M89.7464 212.772C89.6791 211.545 89.3235 210.35 88.7085 209.285C88.0935 208.221 87.2363 207.316 86.2064 206.644C84.8125 205.84 83.6079 206.076 83.0504 207.097C83.6093 207.115 84.1535 207.28 84.6284 207.575C85.6592 208.246 86.517 209.151 87.1322 210.215C87.7473 211.28 88.1023 212.475 88.1684 213.703C88.1684 214.818 87.7791 215.602 87.1532 215.981L88.6891 215.092C89.3256 214.734 89.7464 213.929 89.7464 212.772Z" fill="#263238"/>
<path d="M84.7442 205.966C82.2878 204.546 80.2942 205.698 80.2942 208.538L89.1994 213.682C89.1994 210.837 87.2059 207.386 84.7442 205.966Z" fill="#7DE4A1"/>
<path d="M86.3432 204.714C84.539 203.662 82.9873 204.02 82.2877 205.403C83.1476 205.288 84.02 205.488 84.7441 205.966C87.2058 207.386 89.1994 210.837 89.1994 213.682L90.7774 212.43C90.7984 209.59 88.8049 206.134 86.3432 204.714Z" fill="#7DE4A1"/>
<path opacity="0.5" d="M86.3432 204.714C84.539 203.662 82.9873 204.02 82.2877 205.403C83.1476 205.288 84.02 205.488 84.7441 205.966C87.2058 207.386 89.1994 210.837 89.1994 213.682L90.7774 212.43C90.7984 209.59 88.8049 206.134 86.3432 204.714Z" fill="black"/>
<path d="M118.85 224.271C117.156 224.274 115.49 223.843 114.011 223.019L81.6092 204.835C80.567 204.254 79.6887 203.419 79.056 202.407C78.4232 201.396 78.0566 200.24 77.9903 199.049L74.424 135.019C74.374 134.144 74.1075 133.295 73.6485 132.549C73.1894 131.803 72.5522 131.182 71.794 130.743L69.406 129.317C69.1167 129.148 68.8773 128.906 68.7119 128.615C68.5465 128.324 68.4611 127.994 68.4643 127.659C68.4675 127.324 68.5592 126.996 68.7302 126.708C68.9011 126.42 69.1451 126.182 69.4375 126.019L96.3687 110.923C96.4811 110.85 96.6073 110.8 96.7395 110.778C96.8717 110.755 97.0072 110.76 97.1374 110.792C97.2676 110.825 97.3898 110.883 97.4965 110.964C97.6031 111.046 97.6919 111.148 97.7573 111.265C97.8227 111.382 97.8633 111.512 97.8767 111.645C97.89 111.778 97.8758 111.913 97.8349 112.041C97.7939 112.169 97.7272 112.287 97.6387 112.387C97.5503 112.488 97.4421 112.57 97.3208 112.627L70.4948 127.681L72.8145 129.038C73.8495 129.643 74.7184 130.494 75.3435 131.517C75.9687 132.54 76.3305 133.701 76.3965 134.898L79.926 198.923C79.9725 199.789 80.2382 200.63 80.6982 201.366C81.1581 202.102 81.7974 202.709 82.556 203.131L114.963 221.315C116.149 221.974 117.485 222.32 118.842 222.32C120.2 222.32 121.535 221.974 122.721 221.315L146.328 208.08C146.44 208.01 146.566 207.964 146.696 207.944C146.827 207.924 146.96 207.93 147.088 207.963C147.217 207.996 147.337 208.054 147.441 208.135C147.546 208.215 147.634 208.316 147.699 208.432C147.763 208.547 147.804 208.674 147.818 208.806C147.832 208.937 147.82 209.07 147.781 209.196C147.743 209.323 147.679 209.44 147.594 209.541C147.508 209.642 147.404 209.725 147.286 209.785L123.673 223.024C122.199 223.845 120.538 224.274 118.85 224.271Z" fill="#455A64"/>
<path d="M88.0106 208.775C87.7579 208.776 87.5093 208.711 87.29 208.585L81.3619 205.261C81.0413 205.061 80.8101 204.746 80.7163 204.38C80.6225 204.014 80.6734 203.626 80.8584 203.297C81.0434 202.967 81.3482 202.722 81.7095 202.612C82.0707 202.501 82.4606 202.535 82.7979 202.705L88.7259 206.034C89.0095 206.192 89.2326 206.439 89.3601 206.737C89.4877 207.036 89.5125 207.368 89.4305 207.682C89.3486 207.996 89.1646 208.273 88.9076 208.471C88.6505 208.669 88.335 208.776 88.0106 208.775Z" fill="#7DE4A1"/>
<path d="M114.568 223.676C114.318 223.677 114.072 223.614 113.853 223.492L107.92 220.163C107.752 220.067 107.605 219.938 107.486 219.786C107.368 219.633 107.281 219.458 107.23 219.271C107.179 219.085 107.166 218.89 107.19 218.698C107.215 218.506 107.277 218.321 107.373 218.153C107.469 217.985 107.597 217.838 107.75 217.72C107.903 217.601 108.077 217.514 108.264 217.464C108.451 217.413 108.645 217.399 108.837 217.424C109.029 217.448 109.214 217.51 109.382 217.606L115.284 220.92C115.567 221.078 115.79 221.325 115.918 221.623C116.045 221.921 116.07 222.254 115.988 222.568C115.906 222.881 115.722 223.159 115.465 223.357C115.208 223.555 114.893 223.662 114.568 223.66V223.676Z" fill="#7DE4A1"/>
<path d="M118.85 224.281C117.589 224.282 116.339 224.041 115.168 223.571C115.043 223.528 114.928 223.46 114.83 223.371C114.732 223.282 114.653 223.174 114.598 223.053C114.543 222.933 114.513 222.802 114.51 222.67C114.506 222.538 114.53 222.406 114.579 222.283C114.628 222.16 114.702 222.048 114.796 221.955C114.889 221.861 115.001 221.787 115.124 221.738C115.247 221.689 115.378 221.665 115.511 221.668C115.643 221.671 115.773 221.701 115.894 221.756C116.832 222.135 117.833 222.329 118.845 222.33C118.979 222.32 119.114 222.338 119.241 222.382C119.367 222.427 119.484 222.497 119.582 222.589C119.681 222.68 119.76 222.791 119.813 222.914C119.867 223.038 119.895 223.171 119.895 223.305C119.895 223.44 119.867 223.573 119.813 223.696C119.76 223.82 119.681 223.931 119.582 224.022C119.484 224.114 119.367 224.184 119.241 224.228C119.114 224.273 118.979 224.291 118.845 224.281H118.85Z" fill="#455A64"/>
<path d="M85.2597 205.745C85.0032 205.746 84.7511 205.679 84.5286 205.551C84.3061 205.424 84.1211 205.24 83.9922 205.018C83.8632 204.796 83.7948 204.545 83.7939 204.288C83.7929 204.032 83.8594 203.779 83.9867 203.557L85.0703 201.642C85.1608 201.466 85.2858 201.311 85.438 201.184C85.5901 201.058 85.7663 200.964 85.9557 200.907C86.1452 200.851 86.3442 200.833 86.5407 200.855C86.7371 200.878 86.9271 200.939 87.0991 201.037C87.2711 201.134 87.4216 201.266 87.5417 201.423C87.6617 201.58 87.7487 201.76 87.7974 201.952C87.8462 202.143 87.8558 202.343 87.8255 202.538C87.7953 202.733 87.7258 202.921 87.6214 203.089L86.5326 205.003C86.405 205.229 86.22 205.416 85.9963 205.546C85.7727 205.676 85.5185 205.745 85.2597 205.745Z" fill="#7DE4A1"/>
<path d="M86.7008 202.715C86.5324 202.715 86.3671 202.67 86.2222 202.584C86.1103 202.521 86.012 202.436 85.9329 202.335C85.8537 202.234 85.7954 202.119 85.7612 201.995C85.7269 201.871 85.7175 201.742 85.7334 201.615C85.7494 201.487 85.7903 201.364 85.854 201.253L90.6932 192.721C91.0515 192.09 91.5709 191.565 92.1983 191.2C92.8258 190.835 93.5388 190.643 94.2647 190.643H96.6685C97.6279 190.642 98.5476 190.26 99.2259 189.582C99.9043 188.904 100.286 187.984 100.287 187.025C100.278 186.89 100.295 186.756 100.34 186.629C100.385 186.502 100.455 186.385 100.546 186.287C100.638 186.188 100.749 186.11 100.872 186.056C100.996 186.002 101.129 185.975 101.263 185.975C101.398 185.975 101.531 186.002 101.654 186.056C101.777 186.11 101.888 186.188 101.98 186.287C102.071 186.385 102.142 186.502 102.186 186.629C102.231 186.756 102.249 186.89 102.239 187.025C102.237 188.501 101.65 189.918 100.606 190.962C99.5615 192.006 98.1455 192.594 96.6685 192.595H94.2647C93.8842 192.595 93.5104 192.695 93.1814 192.886C92.8524 193.078 92.5801 193.353 92.3922 193.684L87.553 202.215C87.4685 202.367 87.3449 202.494 87.195 202.581C87.0452 202.669 86.8745 202.715 86.7008 202.715Z" fill="#455A64"/>
<path d="M75.7601 142.472C75.546 142.471 75.3382 142.4 75.1685 142.27C74.9988 142.139 74.8765 141.957 74.8204 141.751C74.7642 141.544 74.7774 141.325 74.8578 141.126C74.9383 140.928 75.0815 140.762 75.2656 140.652L106.826 122.39C106.936 122.325 107.059 122.284 107.186 122.267C107.313 122.25 107.442 122.258 107.566 122.291C107.69 122.324 107.806 122.381 107.908 122.459C108.009 122.537 108.095 122.634 108.159 122.745C108.223 122.856 108.265 122.978 108.282 123.105C108.299 123.232 108.291 123.361 108.258 123.485C108.225 123.609 108.168 123.725 108.09 123.827C108.012 123.928 107.915 124.014 107.804 124.078L76.244 142.341C76.0972 142.427 75.9302 142.472 75.7601 142.472Z" fill="#455A64"/>
<path d="M90.588 209.732C90.4204 209.731 90.2556 209.688 90.1094 209.606L88.0369 208.443C87.9254 208.38 87.8273 208.296 87.7483 208.195C87.6693 208.095 87.6109 207.979 87.5765 207.856C87.542 207.733 87.5322 207.604 87.5476 207.477C87.563 207.35 87.6032 207.227 87.6661 207.115C87.729 207.004 87.8132 206.906 87.9139 206.826C88.0147 206.747 88.1301 206.689 88.2534 206.655C88.3767 206.62 88.5056 206.61 88.6327 206.626C88.7599 206.641 88.8827 206.681 88.9943 206.744L91.0667 207.902C91.2548 208.008 91.4026 208.173 91.4868 208.372C91.5711 208.571 91.5872 208.792 91.5325 209.001C91.4779 209.21 91.3556 209.395 91.1847 209.527C91.0139 209.66 90.8041 209.732 90.588 209.732Z" fill="#455A64"/>
<path d="M113.064 157.8C112.934 157.8 112.81 157.748 112.718 157.657C112.626 157.565 112.575 157.441 112.575 157.311V130.795C112.568 130.727 112.575 130.658 112.596 130.593C112.617 130.528 112.652 130.468 112.698 130.417C112.744 130.366 112.8 130.325 112.862 130.298C112.925 130.27 112.993 130.255 113.061 130.255C113.13 130.255 113.198 130.27 113.26 130.298C113.323 130.325 113.379 130.366 113.425 130.417C113.471 130.468 113.505 130.528 113.526 130.593C113.548 130.658 113.555 130.727 113.548 130.795V157.321C113.545 157.448 113.493 157.569 113.403 157.659C113.313 157.748 113.191 157.799 113.064 157.8Z" fill="#263238"/>
<path d="M117.046 160.088C116.916 160.088 116.792 160.037 116.7 159.945C116.608 159.853 116.557 159.729 116.557 159.599V133.078C116.55 133.01 116.557 132.941 116.578 132.876C116.599 132.811 116.634 132.751 116.68 132.7C116.726 132.649 116.782 132.608 116.844 132.58C116.907 132.553 116.975 132.538 117.043 132.538C117.112 132.538 117.179 132.553 117.242 132.58C117.305 132.608 117.361 132.649 117.407 132.7C117.452 132.751 117.487 132.811 117.508 132.876C117.53 132.941 117.537 133.01 117.53 133.078V159.604C117.528 159.732 117.477 159.854 117.387 159.945C117.296 160.035 117.174 160.087 117.046 160.088Z" fill="#263238"/>
<path d="M121.033 162.36C120.968 162.361 120.905 162.349 120.845 162.325C120.785 162.3 120.731 162.264 120.685 162.219C120.64 162.173 120.604 162.119 120.58 162.059C120.555 162 120.543 161.936 120.544 161.871V135.345C120.544 135.215 120.595 135.091 120.687 134.999C120.779 134.907 120.903 134.856 121.033 134.856C121.163 134.856 121.287 134.907 121.379 134.999C121.471 135.091 121.522 135.215 121.522 135.345V161.871C121.522 162.001 121.471 162.125 121.379 162.217C121.287 162.309 121.163 162.36 121.033 162.36Z" fill="#263238"/>
<path d="M125.02 164.638C124.956 164.638 124.892 164.625 124.833 164.601C124.773 164.576 124.719 164.54 124.674 164.495C124.629 164.449 124.593 164.395 124.568 164.336C124.543 164.277 124.531 164.213 124.531 164.149V137.623C124.531 137.493 124.582 137.368 124.674 137.277C124.766 137.185 124.89 137.133 125.02 137.133C125.15 137.133 125.274 137.185 125.366 137.277C125.458 137.368 125.509 137.493 125.509 137.623V164.149C125.509 164.279 125.458 164.403 125.366 164.495C125.274 164.586 125.15 164.638 125.02 164.638Z" fill="#263238"/>
<path d="M129.007 166.91C128.877 166.91 128.753 166.859 128.661 166.767C128.569 166.675 128.518 166.551 128.518 166.421V139.916C128.518 139.786 128.569 139.662 128.661 139.57C128.753 139.478 128.877 139.427 129.007 139.427C129.137 139.427 129.261 139.478 129.353 139.57C129.445 139.662 129.496 139.786 129.496 139.916V166.442C129.491 166.568 129.437 166.687 129.346 166.775C129.255 166.862 129.133 166.91 129.007 166.91Z" fill="#263238"/>
<path d="M132.994 169.188C132.864 169.188 132.74 169.136 132.648 169.045C132.556 168.953 132.505 168.828 132.505 168.699V142.173C132.505 142.043 132.556 141.918 132.648 141.827C132.74 141.735 132.864 141.683 132.994 141.683C133.124 141.683 133.248 141.735 133.34 141.827C133.432 141.918 133.483 142.043 133.483 142.173V168.699C133.483 168.828 133.432 168.953 133.34 169.045C133.248 169.136 133.124 169.188 132.994 169.188Z" fill="#263238"/>
<path d="M136.981 171.476C136.851 171.476 136.727 171.424 136.635 171.333C136.544 171.241 136.492 171.117 136.492 170.987V144.445C136.492 144.315 136.544 144.191 136.635 144.099C136.727 144.007 136.851 143.956 136.981 143.956C137.111 143.956 137.235 144.007 137.327 144.099C137.419 144.191 137.47 144.315 137.47 144.445V170.95C137.475 171.017 137.467 171.085 137.444 171.149C137.422 171.212 137.387 171.271 137.341 171.32C137.295 171.369 137.239 171.409 137.177 171.436C137.115 171.462 137.049 171.476 136.981 171.476Z" fill="#263238"/>
<path d="M140.968 173.738C140.839 173.738 140.714 173.686 140.622 173.595C140.531 173.503 140.479 173.378 140.479 173.249V146.722C140.479 146.593 140.531 146.468 140.622 146.377C140.714 146.285 140.839 146.233 140.968 146.233C141.098 146.233 141.222 146.285 141.314 146.377C141.406 146.468 141.457 146.593 141.457 146.722V173.249C141.457 173.378 141.406 173.503 141.314 173.595C141.222 173.686 141.098 173.738 140.968 173.738Z" fill="#263238"/>
<path d="M144.955 176.01C144.826 176.01 144.701 175.959 144.609 175.867C144.518 175.775 144.466 175.651 144.466 175.521V148.995C144.466 148.865 144.518 148.741 144.609 148.649C144.701 148.557 144.826 148.506 144.955 148.506C145.085 148.506 145.21 148.557 145.301 148.649C145.393 148.741 145.445 148.865 145.445 148.995V175.521C145.445 175.651 145.393 175.775 145.301 175.867C145.21 175.959 145.085 176.01 144.955 176.01Z" fill="#263238"/>
<path d="M148.942 178.314C148.878 178.314 148.815 178.301 148.755 178.277C148.696 178.252 148.642 178.216 148.597 178.171C148.551 178.125 148.515 178.071 148.491 178.012C148.466 177.953 148.453 177.889 148.453 177.825V151.272C148.453 151.143 148.505 151.018 148.597 150.926C148.688 150.835 148.813 150.783 148.942 150.783C149.072 150.783 149.197 150.835 149.288 150.926C149.38 151.018 149.432 151.143 149.432 151.272V177.788C149.437 177.855 149.428 177.923 149.406 177.987C149.383 178.05 149.348 178.109 149.302 178.158C149.256 178.207 149.2 178.247 149.139 178.274C149.077 178.3 149.01 178.314 148.942 178.314Z" fill="#263238"/>
<path d="M152.93 180.56C152.8 180.56 152.675 180.508 152.584 180.417C152.492 180.325 152.44 180.201 152.44 180.071V153.545C152.44 153.415 152.492 153.29 152.584 153.199C152.675 153.107 152.8 153.055 152.93 153.055C153.059 153.055 153.184 153.107 153.275 153.199C153.367 153.29 153.419 153.415 153.419 153.545V180.071C153.419 180.135 153.407 180.199 153.383 180.259C153.359 180.319 153.323 180.373 153.277 180.418C153.231 180.464 153.177 180.5 153.118 180.524C153.058 180.549 152.994 180.561 152.93 180.56Z" fill="#263238"/>
<path d="M156.917 182.838C156.788 182.836 156.665 182.784 156.574 182.692C156.483 182.601 156.433 182.477 156.433 182.348V155.822C156.426 155.754 156.433 155.685 156.454 155.62C156.475 155.555 156.51 155.495 156.556 155.444C156.602 155.393 156.658 155.353 156.72 155.325C156.783 155.297 156.851 155.282 156.919 155.282C156.988 155.282 157.055 155.297 157.118 155.325C157.181 155.353 157.237 155.393 157.283 155.444C157.328 155.495 157.363 155.555 157.384 155.62C157.406 155.685 157.413 155.754 157.406 155.822V182.348C157.406 182.478 157.354 182.603 157.263 182.694C157.171 182.786 157.046 182.838 156.917 182.838Z" fill="#263238"/>
<path d="M160.93 182.838C160.801 182.836 160.678 182.784 160.587 182.692C160.497 182.601 160.446 182.477 160.446 182.348V158.095C160.439 158.026 160.446 157.958 160.467 157.892C160.489 157.827 160.523 157.767 160.569 157.716C160.615 157.665 160.671 157.625 160.734 157.597C160.796 157.569 160.864 157.555 160.933 157.555C161.001 157.555 161.069 157.569 161.131 157.597C161.194 157.625 161.25 157.665 161.296 157.716C161.342 157.767 161.376 157.827 161.398 157.892C161.419 157.958 161.426 158.026 161.419 158.095V182.348C161.419 182.478 161.368 182.603 161.276 182.694C161.184 182.786 161.06 182.838 160.93 182.838Z" fill="#263238"/>
<path d="M164.896 179.419C164.832 179.419 164.769 179.407 164.709 179.383C164.65 179.359 164.596 179.324 164.55 179.279C164.505 179.234 164.469 179.18 164.444 179.121C164.419 179.062 164.407 178.999 164.407 178.935V160.372C164.4 160.304 164.407 160.235 164.428 160.17C164.449 160.105 164.484 160.045 164.53 159.994C164.576 159.943 164.632 159.902 164.695 159.875C164.757 159.847 164.825 159.832 164.893 159.832C164.962 159.832 165.03 159.847 165.092 159.875C165.155 159.902 165.211 159.943 165.257 159.994C165.303 160.045 165.337 160.105 165.358 160.17C165.38 160.235 165.387 160.304 165.38 160.372V178.935C165.38 178.998 165.367 179.061 165.343 179.12C165.319 179.179 165.283 179.232 165.238 179.277C165.193 179.322 165.14 179.357 165.081 179.382C165.022 179.406 164.96 179.419 164.896 179.419Z" fill="#263238"/>
<path d="M168.883 175.453C168.753 175.453 168.629 175.401 168.537 175.309C168.445 175.218 168.394 175.093 168.394 174.963V162.644C168.394 162.515 168.445 162.39 168.537 162.299C168.629 162.207 168.753 162.155 168.883 162.155C169.013 162.155 169.137 162.207 169.229 162.299C169.321 162.39 169.372 162.515 169.372 162.644V174.963C169.372 175.093 169.321 175.218 169.229 175.309C169.137 175.401 169.013 175.453 168.883 175.453Z" fill="#263238"/>
<path d="M172.87 171.86C172.74 171.86 172.616 171.808 172.524 171.717C172.433 171.625 172.381 171.501 172.381 171.371V164.922C172.381 164.792 172.433 164.668 172.524 164.576C172.616 164.484 172.74 164.433 172.87 164.433C173 164.433 173.124 164.484 173.216 164.576C173.308 164.668 173.359 164.792 173.359 164.922V171.371C173.359 171.501 173.308 171.625 173.216 171.717C173.124 171.808 173 171.86 172.87 171.86Z" fill="#263238"/>
<path d="M172.891 172.312C172.806 172.313 172.722 172.29 172.649 172.244L107.762 135.072C107.701 135.043 107.647 135.002 107.602 134.951C107.558 134.9 107.524 134.841 107.504 134.776C107.484 134.712 107.477 134.644 107.484 134.577C107.492 134.51 107.513 134.445 107.546 134.386C107.579 134.328 107.625 134.277 107.679 134.237C107.733 134.196 107.795 134.168 107.861 134.153C107.926 134.137 107.994 134.136 108.061 134.148C108.127 134.161 108.19 134.187 108.246 134.225L173.133 171.397C173.245 171.462 173.327 171.569 173.361 171.694C173.394 171.819 173.377 171.953 173.312 172.065C173.27 172.14 173.209 172.202 173.135 172.246C173.061 172.289 172.977 172.312 172.891 172.312Z" fill="#263238"/>
<path d="M168.294 176.315C168.209 176.314 168.126 176.292 168.052 176.252L108.514 142.141C108.406 142.078 108.326 141.975 108.291 141.855C108.257 141.734 108.271 141.605 108.33 141.494C108.362 141.438 108.404 141.389 108.455 141.349C108.506 141.31 108.564 141.28 108.626 141.263C108.688 141.246 108.753 141.242 108.817 141.25C108.88 141.258 108.942 141.278 108.998 141.31L168.531 175.421C168.627 175.473 168.702 175.555 168.746 175.655C168.789 175.755 168.797 175.866 168.769 175.972C168.741 176.077 168.679 176.17 168.591 176.235C168.504 176.3 168.398 176.334 168.289 176.331L168.294 176.315Z" fill="#263238"/>
<path d="M164.033 180.518C163.948 180.518 163.864 180.494 163.791 180.45L108.898 149C108.842 148.968 108.793 148.926 108.753 148.875C108.714 148.824 108.684 148.766 108.667 148.704C108.65 148.642 108.646 148.577 108.654 148.513C108.662 148.45 108.682 148.388 108.714 148.332C108.78 148.221 108.887 148.14 109.011 148.106C109.136 148.073 109.269 148.09 109.382 148.153L164.281 179.603C164.392 179.669 164.473 179.775 164.506 179.9C164.54 180.025 164.523 180.158 164.459 180.271C164.417 180.346 164.355 180.409 164.28 180.453C164.205 180.496 164.12 180.519 164.033 180.518Z" fill="#263238"/>
<path d="M159.715 184.921C159.543 184.921 159.374 184.876 159.226 184.789L109.435 156.264C109.209 156.135 109.044 155.922 108.976 155.671C108.908 155.421 108.943 155.153 109.072 154.928C109.201 154.703 109.414 154.538 109.664 154.47C109.915 154.402 110.182 154.436 110.408 154.565L159.578 182.738L175.821 167.794L108.251 129.08C108.042 128.944 107.894 128.732 107.836 128.49C107.778 128.247 107.815 127.991 107.939 127.775C108.063 127.558 108.266 127.398 108.505 127.326C108.743 127.253 109.001 127.275 109.224 127.387L177.951 166.742C178.084 166.82 178.197 166.927 178.28 167.056C178.364 167.185 178.417 167.331 178.435 167.484C178.452 167.636 178.432 167.79 178.378 167.934C178.325 168.077 178.238 168.206 178.125 168.309L160.372 184.668C160.192 184.831 159.958 184.921 159.715 184.921Z" fill="#263238"/>
<path d="M81.504 175.232C81.4186 175.233 81.3346 175.211 81.2606 175.168C81.1866 175.125 81.1254 175.064 81.0832 174.99C81.0504 174.934 81.029 174.873 81.0202 174.809C81.0115 174.745 81.0155 174.68 81.0322 174.618C81.0488 174.556 81.0777 174.498 81.1172 174.447C81.1567 174.396 81.2059 174.353 81.262 174.322L111.617 156.674C111.673 156.64 111.735 156.617 111.8 156.608C111.864 156.598 111.93 156.601 111.994 156.617C112.057 156.633 112.117 156.661 112.169 156.701C112.221 156.74 112.265 156.79 112.297 156.846C112.33 156.903 112.351 156.966 112.359 157.03C112.367 157.095 112.362 157.161 112.344 157.224C112.327 157.287 112.296 157.346 112.256 157.397C112.215 157.448 112.164 157.49 112.107 157.521L81.7722 175.158C81.691 175.206 81.5984 175.232 81.504 175.232Z" fill="#37474F"/>
<path d="M85.5121 177.509C85.427 177.509 85.3434 177.487 85.2696 177.444C85.1958 177.402 85.1344 177.341 85.0913 177.267C85.0585 177.212 85.0371 177.15 85.0284 177.087C85.0196 177.023 85.0237 176.958 85.0403 176.896C85.057 176.833 85.0859 176.775 85.1254 176.724C85.1648 176.673 85.2141 176.631 85.2702 176.599L115.626 158.952C115.681 158.912 115.744 158.884 115.811 158.87C115.878 158.855 115.947 158.855 116.014 158.87C116.081 158.884 116.144 158.912 116.199 158.952C116.255 158.992 116.301 159.043 116.336 159.102C116.37 159.161 116.391 159.227 116.399 159.295C116.406 159.363 116.399 159.432 116.379 159.497C116.358 159.562 116.324 159.622 116.278 159.673C116.233 159.724 116.177 159.765 116.115 159.794L85.7593 177.441C85.6848 177.486 85.5993 177.51 85.5121 177.509Z" fill="#37474F"/>
<path d="M89.5044 179.782C89.3974 179.781 89.2935 179.746 89.2087 179.68C89.1238 179.615 89.0627 179.524 89.0346 179.421C89.0065 179.317 89.0131 179.208 89.0533 179.109C89.0935 179.009 89.1652 178.926 89.2572 178.872L119.613 161.224C119.725 161.164 119.856 161.149 119.979 161.184C120.101 161.218 120.206 161.299 120.269 161.41C120.333 161.52 120.351 161.651 120.32 161.774C120.289 161.898 120.21 162.004 120.102 162.071L89.7464 179.718C89.672 179.759 89.589 179.78 89.5044 179.782Z" fill="#37474F"/>
<path d="M93.4915 182.059C93.4062 182.056 93.3228 182.033 93.2486 181.991C93.1744 181.949 93.1115 181.889 93.0655 181.817C93.0021 181.705 92.9853 181.572 93.0187 181.447C93.0521 181.322 93.1331 181.215 93.2443 181.149L123.584 163.502C123.639 163.462 123.703 163.434 123.769 163.42C123.836 163.405 123.905 163.405 123.972 163.419C124.039 163.434 124.102 163.462 124.158 163.502C124.213 163.542 124.26 163.593 124.294 163.652C124.328 163.711 124.35 163.777 124.357 163.845C124.365 163.913 124.358 163.982 124.337 164.047C124.316 164.112 124.282 164.172 124.237 164.223C124.191 164.274 124.135 164.315 124.073 164.343L93.7335 181.996C93.6603 182.039 93.5765 182.061 93.4915 182.059Z" fill="#37474F"/>
<path d="M97.4786 184.331C97.3716 184.331 97.2677 184.295 97.1828 184.23C97.098 184.165 97.0368 184.074 97.0088 183.971C96.9807 183.867 96.9873 183.758 97.0275 183.658C97.0677 183.559 97.1394 183.476 97.2314 183.421L127.587 165.774C127.699 165.709 127.833 165.69 127.959 165.723C128.084 165.756 128.192 165.838 128.258 165.95C128.323 166.063 128.341 166.196 128.308 166.322C128.275 166.448 128.194 166.555 128.081 166.621L97.7206 184.268C97.6468 184.31 97.5634 184.332 97.4786 184.331Z" fill="#37474F"/>
<path d="M101.492 186.609C101.407 186.606 101.323 186.583 101.249 186.541C101.175 186.499 101.112 186.439 101.066 186.367C101.003 186.254 100.986 186.121 101.019 185.997C101.053 185.872 101.134 185.765 101.245 185.699L131.6 168.052C131.656 168.014 131.718 167.988 131.784 167.975C131.85 167.963 131.918 167.964 131.983 167.978C132.048 167.993 132.11 168.021 132.164 168.06C132.218 168.1 132.264 168.15 132.298 168.208C132.332 168.266 132.354 168.33 132.362 168.396C132.37 168.463 132.364 168.53 132.345 168.595C132.326 168.659 132.294 168.719 132.251 168.77C132.208 168.821 132.155 168.863 132.095 168.893L101.734 186.541C101.662 186.586 101.578 186.61 101.492 186.609Z" fill="#37474F"/>
<path d="M105.453 188.881C105.367 188.882 105.283 188.86 105.209 188.818C105.135 188.775 105.074 188.714 105.032 188.639C104.967 188.528 104.948 188.395 104.981 188.27C105.013 188.144 105.094 188.037 105.206 187.971L135.561 170.324C135.616 170.291 135.678 170.27 135.742 170.261C135.805 170.252 135.87 170.256 135.933 170.273C135.995 170.29 136.053 170.319 136.104 170.358C136.155 170.398 136.197 170.447 136.229 170.503C136.294 170.615 136.313 170.748 136.28 170.873C136.248 170.998 136.167 171.105 136.055 171.171L105.7 188.834C105.623 188.871 105.538 188.887 105.453 188.881Z" fill="#37474F"/>
<path d="M109.44 191.159C109.333 191.158 109.229 191.123 109.144 191.058C109.059 190.993 108.998 190.901 108.97 190.798C108.942 190.695 108.949 190.585 108.989 190.486C109.029 190.387 109.101 190.304 109.193 190.249L139.548 172.602C139.659 172.546 139.787 172.535 139.906 172.57C140.025 172.606 140.126 172.685 140.188 172.792C140.251 172.898 140.271 173.025 140.244 173.146C140.217 173.267 140.145 173.373 140.043 173.443L109.687 191.091C109.613 191.136 109.527 191.159 109.44 191.159Z" fill="#37474F"/>
<path d="M113.427 193.431C113.342 193.432 113.258 193.41 113.184 193.368C113.11 193.325 113.048 193.263 113.006 193.189C112.941 193.078 112.922 192.945 112.955 192.819C112.988 192.694 113.068 192.587 113.18 192.521L143.54 174.874C143.596 174.841 143.657 174.82 143.721 174.811C143.785 174.802 143.85 174.806 143.912 174.823C143.974 174.84 144.033 174.869 144.083 174.908C144.134 174.947 144.177 174.997 144.208 175.053C144.272 175.165 144.289 175.298 144.255 175.423C144.222 175.548 144.141 175.655 144.03 175.721L113.674 193.368C113.598 193.409 113.513 193.431 113.427 193.431Z" fill="#37474F"/>
<path d="M117.414 195.709C117.307 195.708 117.203 195.673 117.118 195.608C117.033 195.542 116.972 195.451 116.944 195.348C116.916 195.245 116.923 195.135 116.963 195.036C117.003 194.937 117.075 194.853 117.167 194.799L147.528 177.152C147.639 177.086 147.772 177.068 147.897 177.1C148.023 177.133 148.13 177.214 148.196 177.325C148.259 177.438 148.276 177.571 148.242 177.696C148.209 177.82 148.128 177.927 148.017 177.993L117.661 195.64C117.587 195.686 117.501 195.709 117.414 195.709Z" fill="#37474F"/>
<path d="M121.401 197.981C121.316 197.982 121.232 197.96 121.158 197.917C121.084 197.875 121.023 197.813 120.98 197.739C120.947 197.684 120.926 197.622 120.917 197.559C120.909 197.495 120.913 197.43 120.929 197.368C120.946 197.305 120.975 197.247 121.014 197.196C121.054 197.145 121.103 197.103 121.159 197.071L151.515 179.424C151.57 179.39 151.632 179.367 151.697 179.357C151.762 179.347 151.827 179.35 151.891 179.366C151.954 179.382 152.014 179.411 152.066 179.45C152.118 179.49 152.162 179.539 152.194 179.596C152.227 179.652 152.248 179.715 152.256 179.78C152.264 179.845 152.259 179.911 152.242 179.974C152.224 180.036 152.194 180.095 152.153 180.146C152.112 180.197 152.061 180.24 152.004 180.271L121.648 197.918C121.572 197.959 121.487 197.981 121.401 197.981Z" fill="#37474F"/>
<path d="M125.388 200.259C125.303 200.258 125.219 200.236 125.146 200.194C125.072 200.151 125.01 200.09 124.967 200.017C124.936 199.961 124.916 199.899 124.909 199.835C124.902 199.771 124.907 199.706 124.926 199.645C124.944 199.583 124.974 199.525 125.015 199.475C125.055 199.426 125.105 199.384 125.162 199.354L155.517 181.707C155.573 181.667 155.636 181.639 155.703 181.624C155.77 181.61 155.839 181.61 155.906 181.624C155.973 181.638 156.036 181.666 156.091 181.707C156.147 181.747 156.193 181.798 156.227 181.857C156.262 181.916 156.283 181.982 156.291 182.05C156.298 182.118 156.291 182.187 156.27 182.252C156.25 182.317 156.215 182.377 156.17 182.428C156.125 182.479 156.069 182.52 156.007 182.548L125.635 200.19C125.561 200.235 125.475 200.259 125.388 200.259Z" fill="#37474F"/>
<path d="M113.585 187.887L89.3151 173.88V140.61L113.585 154.623V187.887Z" fill="#7DE4A1"/>
<path d="M113.585 187.887V154.623L137.849 140.61V173.88L113.585 187.887Z" fill="#7DE4A1"/>
<path opacity="0.5" d="M113.585 187.887L89.3151 173.88V140.61L113.585 154.623V187.887Z" fill="black"/>
<path opacity="0.7" d="M113.585 187.887V154.623L137.849 140.61V173.88L113.585 187.887Z" fill="black"/>
<path d="M113.585 153.266L87.432 138.17L113.585 123.068L139.732 138.17L113.585 153.266Z" fill="#7DE4A1"/>
<path d="M98.8041 131.6L124.957 146.701L128.36 144.734L102.213 129.638L98.8041 131.6Z" fill="#7DE4A1"/>
<path opacity="0.8" d="M98.8041 131.6L124.957 146.701L128.36 144.734L102.213 129.638L98.8041 131.6Z" fill="white"/>
<path d="M128.36 131.6L102.213 146.701L98.8041 144.734L124.957 129.638L128.36 131.6Z" fill="#7DE4A1"/>
<path opacity="0.8" d="M128.36 131.6L102.213 146.701L98.8041 144.734L124.957 129.638L128.36 131.6Z" fill="white"/>
<path d="M113.585 158.489L87.432 143.388V138.17L113.585 153.266V158.489Z" fill="#7DE4A1"/>
<path d="M113.585 158.489V153.266L139.732 138.17V143.393L113.585 158.489Z" fill="#7DE4A1"/>
<path opacity="0.3" d="M113.585 158.489L87.432 143.388V138.17L113.585 153.266V158.489Z" fill="black"/>
<path opacity="0.5" d="M113.585 158.489V153.266L139.732 138.17V143.393L113.585 158.489Z" fill="black"/>
<path d="M102.213 181.344L98.8041 179.392V144.734L102.213 146.701V181.344Z" fill="#7DE4A1"/>
<path d="M124.957 181.344L128.36 179.392V144.734L124.957 146.701V181.344Z" fill="#7DE4A1"/>
<path d="M126.061 151.877C126.043 152.244 125.938 152.602 125.755 152.921C125.572 153.24 125.317 153.511 125.009 153.713C124.426 154.055 123.957 153.776 123.957 153.103C123.977 152.735 124.083 152.377 124.265 152.058C124.448 151.738 124.703 151.465 125.009 151.262C125.588 150.925 126.061 151.199 126.061 151.877Z" fill="#7DE4A1"/>
<path d="M137.102 145.502C137.083 145.869 136.978 146.226 136.795 146.545C136.612 146.864 136.357 147.136 136.05 147.338C135.461 147.674 134.998 147.401 134.998 146.728C135.017 146.36 135.122 146.001 135.304 145.682C135.487 145.362 135.743 145.089 136.05 144.887C136.629 144.55 137.102 144.824 137.102 145.502Z" fill="#7DE4A1"/>
<path d="M124.999 152.766C124.859 152.766 124.726 152.711 124.627 152.612C124.528 152.513 124.473 152.38 124.473 152.24V144.918C124.478 143.399 124.873 141.907 125.621 140.585C126.369 139.263 127.444 138.156 128.744 137.37L131.332 135.792C131.853 135.478 132.449 135.308 133.057 135.3C133.666 135.291 134.266 135.445 134.796 135.745C135.326 136.044 135.766 136.479 136.073 137.005C136.379 137.531 136.54 138.129 136.539 138.738V145.849C136.539 145.989 136.484 146.123 136.385 146.221C136.287 146.32 136.153 146.375 136.013 146.375C135.874 146.375 135.74 146.32 135.641 146.221C135.543 146.123 135.487 145.989 135.487 145.849V138.764C135.488 138.337 135.375 137.918 135.16 137.549C134.946 137.181 134.637 136.875 134.265 136.665C133.894 136.455 133.474 136.347 133.047 136.353C132.62 136.358 132.203 136.477 131.837 136.697L129.249 138.249C128.099 138.943 127.148 139.921 126.485 141.089C125.823 142.257 125.472 143.575 125.467 144.918V152.256C125.464 152.383 125.415 152.505 125.329 152.599C125.243 152.693 125.126 152.752 124.999 152.766Z" fill="#7DE4A1"/>
<path opacity="0.9" d="M124.999 152.766C124.859 152.766 124.726 152.711 124.627 152.612C124.528 152.513 124.473 152.38 124.473 152.24V144.918C124.478 143.399 124.873 141.907 125.621 140.585C126.369 139.263 127.444 138.156 128.744 137.37L131.332 135.792C131.853 135.478 132.449 135.308 133.057 135.3C133.666 135.291 134.266 135.445 134.796 135.745C135.326 136.044 135.766 136.479 136.073 137.005C136.379 137.531 136.54 138.129 136.539 138.738V145.849C136.539 145.989 136.484 146.123 136.385 146.221C136.287 146.32 136.153 146.375 136.013 146.375C135.874 146.375 135.74 146.32 135.641 146.221C135.543 146.123 135.487 145.989 135.487 145.849V138.764C135.488 138.337 135.375 137.918 135.16 137.549C134.946 137.181 134.637 136.875 134.265 136.665C133.894 136.455 133.474 136.347 133.047 136.353C132.62 136.358 132.203 136.477 131.837 136.697L129.249 138.249C128.099 138.943 127.148 139.921 126.485 141.089C125.823 142.257 125.472 143.575 125.467 144.918V152.256C125.464 152.383 125.415 152.505 125.329 152.599C125.243 152.693 125.126 152.752 124.999 152.766Z" fill="black"/>
<path d="M141.684 139.311L154.271 147.191V182.864L141.684 174.984V139.311Z" fill="#7DE4A1"/>
<path d="M116.757 189.376V153.702L141.684 139.311V174.984L116.757 189.376Z" fill="#7DE4A1"/>
<path opacity="0.3" d="M116.757 189.376V153.702L141.684 139.311V174.984L116.757 189.376Z" fill="black"/>
<path d="M118.561 178.84L122.043 158.442C122.36 156.597 123.079 154.844 124.149 153.308C125.219 151.772 126.613 150.489 128.234 149.552L141.294 142.02C142.033 141.594 142.864 141.356 143.716 141.327C144.568 141.297 145.414 141.477 146.18 141.851C146.946 142.225 147.609 142.781 148.11 143.471C148.611 144.161 148.934 144.963 149.053 145.807L152.514 170.371C152.985 173.721 152.134 177.123 150.143 179.858C148.151 182.593 145.174 184.446 141.841 185.026L127.266 187.551C126.077 187.753 124.857 187.667 123.708 187.301C122.559 186.934 121.515 186.298 120.662 185.445C119.81 184.592 119.174 183.547 118.809 182.398C118.443 181.249 118.358 180.029 118.561 178.84Z" fill="#7DE4A1"/>
<path opacity="0.8" d="M118.561 178.84L122.043 158.442C122.36 156.597 123.079 154.844 124.149 153.308C125.219 151.772 126.613 150.489 128.234 149.552L141.294 142.02C142.033 141.594 142.864 141.356 143.716 141.327C144.568 141.297 145.414 141.477 146.18 141.851C146.946 142.225 147.609 142.781 148.11 143.471C148.611 144.161 148.934 144.963 149.053 145.807L152.514 170.371C152.985 173.721 152.134 177.123 150.143 179.858C148.151 182.593 145.174 184.446 141.841 185.026L127.266 187.551C126.077 187.753 124.857 187.667 123.708 187.301C122.559 186.934 121.515 186.298 120.662 185.445C119.81 184.592 119.174 183.547 118.809 182.398C118.443 181.249 118.358 180.029 118.561 178.84Z" fill="white"/>
<path d="M129.349 197.255V161.582L154.271 147.191V182.864L129.349 197.255Z" fill="#7DE4A1"/>
<path opacity="0.5" d="M129.349 197.255V161.582L154.271 147.191V182.864L129.349 197.255Z" fill="black"/>
<path d="M116.757 153.702L129.349 161.582V197.255L116.757 189.376V153.702Z" fill="#7DE4A1"/>
<path opacity="0.3" d="M123.053 186.94V157.647L129.349 161.582V197.255L123.053 186.94Z" fill="black"/>
<path d="M137.349 160.314C137.331 160.682 137.226 161.041 137.043 161.36C136.86 161.68 136.605 161.953 136.297 162.155C135.714 162.492 135.245 162.218 135.245 161.54C135.264 161.173 135.369 160.815 135.552 160.496C135.734 160.177 135.99 159.906 136.297 159.704C136.876 159.378 137.349 159.641 137.349 160.314Z" fill="#7DE4A1"/>
<path d="M148.395 153.939C148.377 154.306 148.271 154.664 148.089 154.983C147.906 155.302 147.651 155.573 147.343 155.775C146.754 156.117 146.291 155.843 146.291 155.165C146.31 154.797 146.414 154.44 146.597 154.121C146.78 153.802 147.036 153.53 147.343 153.329C147.917 152.987 148.395 153.266 148.395 153.939Z" fill="#7DE4A1"/>
<path d="M136.287 161.203C136.147 161.203 136.014 161.148 135.915 161.049C135.816 160.951 135.761 160.817 135.761 160.677V153.361C135.765 151.84 136.16 150.346 136.909 149.023C137.658 147.7 138.736 146.593 140.037 145.807L142.625 144.256C143.146 143.943 143.741 143.774 144.349 143.766C144.957 143.759 145.556 143.912 146.085 144.212C146.614 144.511 147.054 144.946 147.36 145.471C147.666 145.996 147.827 146.593 147.827 147.201V154.318C147.847 154.395 147.848 154.476 147.832 154.555C147.815 154.633 147.781 154.706 147.732 154.769C147.683 154.832 147.62 154.883 147.548 154.918C147.476 154.954 147.397 154.972 147.317 154.972C147.237 154.972 147.158 154.954 147.086 154.918C147.015 154.883 146.952 154.832 146.902 154.769C146.853 154.706 146.819 154.633 146.803 154.555C146.786 154.476 146.787 154.395 146.807 154.318V147.201C146.806 146.774 146.692 146.355 146.477 145.987C146.262 145.618 145.953 145.313 145.581 145.103C145.209 144.893 144.789 144.785 144.362 144.791C143.935 144.796 143.517 144.914 143.151 145.134L140.563 146.686C139.414 147.38 138.462 148.359 137.801 149.528C137.139 150.698 136.79 152.017 136.787 153.361V160.693C136.783 160.825 136.729 160.951 136.637 161.046C136.544 161.14 136.419 161.197 136.287 161.203Z" fill="#7DE4A1"/>
<path opacity="0.9" d="M136.287 161.203C136.147 161.203 136.014 161.148 135.915 161.049C135.816 160.951 135.761 160.817 135.761 160.677V153.361C135.765 151.84 136.16 150.346 136.909 149.023C137.658 147.7 138.736 146.593 140.037 145.807L142.625 144.256C143.146 143.943 143.741 143.774 144.349 143.766C144.957 143.759 145.556 143.912 146.085 144.212C146.614 144.511 147.054 144.946 147.36 145.471C147.666 145.996 147.827 146.593 147.827 147.201V154.318C147.847 154.395 147.848 154.476 147.832 154.555C147.815 154.633 147.781 154.706 147.732 154.769C147.683 154.832 147.62 154.883 147.548 154.918C147.476 154.954 147.397 154.972 147.317 154.972C147.237 154.972 147.158 154.954 147.086 154.918C147.015 154.883 146.952 154.832 146.902 154.769C146.853 154.706 146.819 154.633 146.803 154.555C146.786 154.476 146.787 154.395 146.807 154.318V147.201C146.806 146.774 146.692 146.355 146.477 145.987C146.262 145.618 145.953 145.313 145.581 145.103C145.209 144.893 144.789 144.785 144.362 144.791C143.935 144.796 143.517 144.914 143.151 145.134L140.563 146.686C139.414 147.38 138.462 148.359 137.801 149.528C137.139 150.698 136.79 152.017 136.787 153.361V160.693C136.783 160.825 136.729 160.951 136.637 161.046C136.544 161.14 136.419 161.197 136.287 161.203Z" fill="black"/>
<path d="M145.092 186.383C144.875 186.383 144.664 186.311 144.492 186.179C144.32 186.046 144.197 185.859 144.143 185.649C144.088 185.438 144.106 185.216 144.192 185.016C144.278 184.817 144.428 184.652 144.619 184.547L176.994 166.742C177.219 166.639 177.474 166.624 177.709 166.701C177.944 166.779 178.141 166.942 178.26 167.159C178.379 167.375 178.412 167.629 178.352 167.869C178.292 168.109 178.143 168.317 177.936 168.452L145.56 186.257C145.418 186.339 145.257 186.382 145.092 186.383Z" fill="#37474F"/>
<path d="M127.34 202.736C127.163 202.735 126.99 202.685 126.84 202.593C126.69 202.5 126.568 202.368 126.488 202.21C126.425 202.098 126.386 201.975 126.372 201.847C126.357 201.72 126.368 201.591 126.404 201.468C126.44 201.344 126.499 201.229 126.58 201.129C126.66 201.029 126.759 200.946 126.872 200.885L159.242 183.064C159.468 182.946 159.732 182.921 159.977 182.995C160.222 183.069 160.428 183.236 160.551 183.461C160.674 183.685 160.705 183.948 160.636 184.195C160.567 184.441 160.404 184.651 160.183 184.779L127.792 202.615C127.653 202.692 127.498 202.734 127.34 202.736Z" fill="#37474F"/>
<path d="M151.325 189.223C151.258 189.224 151.191 189.21 151.13 189.183C151.068 189.155 151.013 189.115 150.968 189.065C150.88 188.97 150.834 188.845 150.839 188.715C150.844 188.586 150.899 188.464 150.994 188.376L168.746 172.002C168.841 171.915 168.967 171.868 169.096 171.873C169.225 171.878 169.347 171.934 169.435 172.028C169.523 172.124 169.57 172.251 169.565 172.381C169.56 172.511 169.504 172.634 169.409 172.723L151.657 189.076C151.614 189.121 151.562 189.157 151.506 189.183C151.449 189.208 151.387 189.222 151.325 189.223Z" fill="#37474F"/>
<path d="M135.808 197.713C135.741 197.713 135.674 197.699 135.613 197.672C135.551 197.645 135.496 197.605 135.451 197.555C135.407 197.508 135.372 197.453 135.35 197.393C135.327 197.333 135.317 197.269 135.319 197.205C135.322 197.141 135.337 197.078 135.364 197.02C135.391 196.962 135.429 196.909 135.477 196.866L153.229 180.507C153.277 180.464 153.332 180.43 153.392 180.408C153.453 180.386 153.517 180.376 153.581 180.379C153.645 180.381 153.709 180.397 153.767 180.424C153.825 180.451 153.878 180.489 153.921 180.536C153.965 180.584 153.998 180.639 154.02 180.699C154.043 180.76 154.053 180.824 154.05 180.888C154.047 180.952 154.032 181.015 154.005 181.074C153.978 181.132 153.939 181.185 153.892 181.228L136.14 197.587C136.049 197.668 135.931 197.713 135.808 197.713Z" fill="#37474F"/>
<path d="M143.372 193.442C143.305 193.442 143.238 193.428 143.176 193.401C143.115 193.374 143.06 193.334 143.014 193.284C142.97 193.237 142.936 193.182 142.914 193.122C142.891 193.062 142.881 192.998 142.883 192.934C142.886 192.87 142.901 192.807 142.928 192.749C142.955 192.69 142.993 192.638 143.041 192.595L160.793 176.236C160.84 176.193 160.895 176.16 160.955 176.138C161.015 176.116 161.079 176.106 161.142 176.109C161.206 176.111 161.269 176.127 161.327 176.153C161.384 176.18 161.436 176.218 161.48 176.265C161.523 176.312 161.556 176.367 161.578 176.427C161.6 176.487 161.61 176.551 161.607 176.614C161.605 176.678 161.589 176.741 161.563 176.799C161.536 176.856 161.498 176.908 161.451 176.952L143.703 193.31C143.614 193.396 143.495 193.443 143.372 193.442Z" fill="#37474F"/>
<path d="M127.34 202.736C127.17 202.736 127.004 202.693 126.856 202.61L77.0646 174.106C76.84 173.978 76.6756 173.765 76.6075 173.516C76.5394 173.266 76.5733 173 76.7016 172.775C76.83 172.551 77.0423 172.386 77.2919 172.318C77.5414 172.25 77.8078 172.284 78.0324 172.412L127.203 200.585L143.451 185.615L75.8811 146.901C75.6565 146.773 75.4921 146.561 75.424 146.311C75.3559 146.061 75.3898 145.795 75.5181 145.571C75.6465 145.346 75.8588 145.181 76.1084 145.113C76.3579 145.045 76.6243 145.079 76.8489 145.208L145.576 184.584C145.711 184.66 145.827 184.767 145.913 184.896C145.998 185.025 146.052 185.173 146.07 185.327C146.087 185.481 146.068 185.637 146.013 185.782C145.958 185.928 145.87 186.058 145.755 186.162L128.002 202.521C127.816 202.673 127.58 202.75 127.34 202.736Z" fill="#455A64"/>
<path d="M81.0359 175.721C80.9719 175.721 80.9085 175.708 80.8495 175.683C80.7904 175.659 80.7368 175.623 80.6918 175.577C80.6468 175.532 80.6113 175.478 80.5873 175.418C80.5633 175.359 80.5513 175.296 80.552 175.232V148.705C80.5449 148.637 80.5522 148.568 80.5734 148.503C80.5946 148.438 80.6293 148.378 80.6752 148.327C80.721 148.276 80.7771 148.236 80.8397 148.208C80.9023 148.18 80.97 148.166 81.0385 148.166C81.107 148.166 81.1748 148.18 81.2374 148.208C81.3 148.236 81.356 148.276 81.4019 148.327C81.4478 148.378 81.4824 148.438 81.5037 148.503C81.5249 148.568 81.5322 148.637 81.5251 148.705V175.232C81.5258 175.296 81.5136 175.36 81.4893 175.42C81.4649 175.479 81.4289 175.534 81.3834 175.579C81.3378 175.625 81.2836 175.661 81.2239 175.685C81.1643 175.709 81.1003 175.722 81.0359 175.721Z" fill="#455A64"/>
<path d="M85.0282 177.998C84.964 177.998 84.9004 177.986 84.841 177.961C84.7817 177.937 84.7277 177.901 84.6823 177.855C84.6369 177.81 84.6009 177.756 84.5763 177.696C84.5517 177.637 84.539 177.573 84.539 177.509V150.962C84.5319 150.894 84.5392 150.825 84.5605 150.76C84.5817 150.695 84.6163 150.635 84.6622 150.584C84.7081 150.533 84.7641 150.492 84.8267 150.464C84.8893 150.437 84.9571 150.422 85.0256 150.422C85.0941 150.422 85.1618 150.437 85.2244 150.464C85.287 150.492 85.3431 150.533 85.389 150.584C85.4348 150.635 85.4695 150.695 85.4907 150.76C85.5119 150.825 85.5192 150.894 85.5121 150.962V177.488C85.515 177.554 85.5046 177.619 85.4816 177.681C85.4586 177.742 85.4235 177.798 85.3783 177.846C85.3332 177.893 85.2789 177.932 85.2188 177.958C85.1586 177.984 85.0938 177.998 85.0282 177.998Z" fill="#455A64"/>
<path d="M89.0153 180.271C88.9508 180.271 88.8869 180.259 88.8272 180.235C88.7676 180.211 88.7134 180.175 88.6678 180.129C88.6222 180.083 88.5862 180.029 88.5619 179.97C88.5376 179.91 88.5254 179.846 88.5261 179.782V153.255C88.5261 153.126 88.5776 153.001 88.6694 152.909C88.7611 152.818 88.8855 152.766 89.0153 152.766C89.145 152.766 89.2694 152.818 89.3612 152.909C89.4529 153.001 89.5045 153.126 89.5045 153.255V179.782C89.5045 179.911 89.4529 180.036 89.3612 180.127C89.2694 180.219 89.145 180.271 89.0153 180.271Z" fill="#455A64"/>
<path d="M93.0023 182.548C92.8726 182.548 92.7482 182.497 92.6564 182.405C92.5647 182.313 92.5132 182.189 92.5132 182.059V155.533C92.5132 155.403 92.5647 155.279 92.6564 155.187C92.7482 155.095 92.8726 155.044 93.0023 155.044C93.1321 155.044 93.2565 155.095 93.3482 155.187C93.44 155.279 93.4915 155.403 93.4915 155.533V182.059C93.4915 182.189 93.44 182.313 93.3482 182.405C93.2565 182.497 93.1321 182.548 93.0023 182.548Z" fill="#455A64"/>
<path d="M96.9894 184.821C96.8597 184.821 96.7352 184.769 96.6435 184.677C96.5518 184.586 96.5002 184.461 96.5002 184.331V157.8C96.5002 157.67 96.5518 157.546 96.6435 157.454C96.7352 157.362 96.8597 157.311 96.9894 157.311C97.1191 157.311 97.2436 157.362 97.3353 157.454C97.427 157.546 97.4786 157.67 97.4786 157.8V184.326C97.4793 184.391 97.4671 184.455 97.4429 184.515C97.4186 184.575 97.3827 184.629 97.3372 184.675C97.2917 184.721 97.2375 184.758 97.1778 184.783C97.1181 184.808 97.0541 184.821 96.9894 184.821Z" fill="#455A64"/>
<path d="M100.966 187.098C100.836 187.098 100.712 187.047 100.62 186.955C100.528 186.863 100.477 186.739 100.477 186.609V160.083C100.477 159.953 100.528 159.829 100.62 159.737C100.712 159.645 100.836 159.594 100.966 159.594C101.096 159.594 101.22 159.645 101.312 159.737C101.404 159.829 101.455 159.953 101.455 160.083V186.609C101.455 186.739 101.404 186.863 101.312 186.955C101.22 187.047 101.096 187.098 100.966 187.098Z" fill="#455A64"/>
<path d="M104.964 189.36C104.834 189.36 104.709 189.308 104.618 189.217C104.526 189.125 104.474 189.001 104.474 188.871V162.355C104.474 162.225 104.526 162.101 104.618 162.009C104.709 161.918 104.834 161.866 104.964 161.866C105.093 161.866 105.218 161.918 105.31 162.009C105.401 162.101 105.453 162.225 105.453 162.355V188.881C105.45 189.009 105.397 189.131 105.306 189.22C105.214 189.31 105.092 189.36 104.964 189.36Z" fill="#455A64"/>
<path d="M108.951 191.648C108.821 191.648 108.697 191.597 108.605 191.505C108.513 191.413 108.461 191.289 108.461 191.159V164.638C108.461 164.508 108.513 164.384 108.605 164.292C108.697 164.2 108.821 164.149 108.951 164.149C109.08 164.149 109.205 164.2 109.297 164.292C109.388 164.384 109.44 164.508 109.44 164.638V191.164C109.438 191.293 109.386 191.416 109.295 191.507C109.203 191.597 109.079 191.648 108.951 191.648Z" fill="#455A64"/>
<path d="M112.938 193.92C112.808 193.92 112.684 193.869 112.592 193.777C112.5 193.685 112.449 193.561 112.449 193.431V166.905C112.449 166.775 112.5 166.651 112.592 166.559C112.684 166.467 112.808 166.416 112.938 166.416C113.067 166.416 113.192 166.467 113.284 166.559C113.375 166.651 113.427 166.775 113.427 166.905V193.431C113.427 193.561 113.375 193.685 113.284 193.777C113.192 193.869 113.067 193.92 112.938 193.92Z" fill="#455A64"/>
<path d="M116.925 196.198C116.795 196.198 116.671 196.146 116.579 196.055C116.487 195.963 116.436 195.839 116.436 195.709V169.183C116.436 169.053 116.487 168.928 116.579 168.837C116.671 168.745 116.795 168.693 116.925 168.693C117.055 168.693 117.179 168.745 117.271 168.837C117.362 168.928 117.414 169.053 117.414 169.183V195.709C117.414 195.839 117.362 195.963 117.271 196.055C117.179 196.146 117.055 196.198 116.925 196.198Z" fill="#455A64"/>
<path d="M120.912 198.47C120.782 198.47 120.658 198.419 120.566 198.327C120.474 198.235 120.423 198.111 120.423 197.981V171.476C120.423 171.346 120.474 171.222 120.566 171.13C120.658 171.038 120.782 170.987 120.912 170.987C121.042 170.987 121.166 171.038 121.258 171.13C121.35 171.222 121.401 171.346 121.401 171.476V198.002C121.397 198.129 121.343 198.249 121.252 198.336C121.161 198.424 121.038 198.472 120.912 198.47Z" fill="#455A64"/>
<path d="M124.899 200.748C124.77 200.747 124.647 200.694 124.557 200.603C124.466 200.511 124.415 200.388 124.415 200.259V173.733C124.408 173.664 124.415 173.596 124.437 173.53C124.458 173.465 124.492 173.405 124.538 173.354C124.584 173.303 124.64 173.263 124.703 173.235C124.765 173.207 124.833 173.193 124.902 173.193C124.97 173.193 125.038 173.207 125.101 173.235C125.163 173.263 125.219 173.303 125.265 173.354C125.311 173.405 125.346 173.465 125.367 173.53C125.388 173.596 125.395 173.664 125.388 173.733V200.259C125.388 200.388 125.337 200.513 125.245 200.605C125.153 200.696 125.029 200.748 124.899 200.748Z" fill="#455A64"/>
<path d="M128.886 200.748C128.757 200.747 128.634 200.694 128.544 200.603C128.453 200.511 128.402 200.388 128.402 200.259V176.005C128.395 175.937 128.402 175.868 128.424 175.803C128.445 175.738 128.479 175.678 128.525 175.627C128.571 175.576 128.627 175.535 128.69 175.507C128.752 175.479 128.82 175.465 128.889 175.465C128.957 175.465 129.025 175.479 129.088 175.507C129.15 175.535 129.206 175.576 129.252 175.627C129.298 175.678 129.333 175.738 129.354 175.803C129.375 175.868 129.382 175.937 129.375 176.005V200.259C129.375 200.388 129.324 200.513 129.232 200.605C129.14 200.696 129.016 200.748 128.886 200.748Z" fill="#455A64"/>
<path d="M132.878 197.329C132.814 197.33 132.751 197.318 132.692 197.294C132.632 197.27 132.578 197.234 132.533 197.189C132.487 197.144 132.451 197.09 132.427 197.031C132.402 196.972 132.389 196.909 132.389 196.845V178.282C132.382 178.214 132.389 178.145 132.411 178.08C132.432 178.015 132.467 177.955 132.512 177.904C132.558 177.853 132.614 177.813 132.677 177.785C132.74 177.757 132.807 177.743 132.876 177.743C132.944 177.743 133.012 177.757 133.075 177.785C133.137 177.813 133.193 177.853 133.239 177.904C133.285 177.955 133.32 178.015 133.341 178.08C133.362 178.145 133.369 178.214 133.362 178.282V196.845C133.362 196.973 133.311 197.096 133.221 197.187C133.13 197.278 133.007 197.329 132.878 197.329Z" fill="#455A64"/>
<path d="M136.865 193.363C136.736 193.363 136.611 193.311 136.52 193.22C136.428 193.128 136.376 193.003 136.376 192.874V180.555C136.369 180.487 136.376 180.418 136.398 180.353C136.419 180.287 136.454 180.227 136.499 180.177C136.545 180.126 136.601 180.085 136.664 180.057C136.727 180.029 136.794 180.015 136.863 180.015C136.931 180.015 136.999 180.029 137.062 180.057C137.124 180.085 137.18 180.126 137.226 180.177C137.272 180.227 137.307 180.287 137.328 180.353C137.349 180.418 137.356 180.487 137.349 180.555V192.874C137.349 193.003 137.299 193.126 137.208 193.218C137.117 193.309 136.994 193.361 136.865 193.363Z" fill="#455A64"/>
<path d="M140.853 189.77C140.723 189.77 140.598 189.719 140.507 189.627C140.415 189.535 140.363 189.411 140.363 189.281V182.832C140.363 182.703 140.415 182.578 140.507 182.486C140.598 182.395 140.723 182.343 140.853 182.343C140.982 182.343 141.107 182.395 141.198 182.486C141.29 182.578 141.342 182.703 141.342 182.832V189.281C141.342 189.411 141.29 189.535 141.198 189.627C141.107 189.719 140.982 189.77 140.853 189.77Z" fill="#455A64"/>
<path d="M140.874 190.223C140.788 190.224 140.704 190.2 140.632 190.154L75.7443 152.982C75.6833 152.953 75.6289 152.912 75.5845 152.861C75.5401 152.81 75.5068 152.751 75.4865 152.687C75.4662 152.622 75.4595 152.554 75.4667 152.487C75.4739 152.42 75.4949 152.355 75.5283 152.297C75.5618 152.238 75.607 152.187 75.6611 152.147C75.7153 152.107 75.7772 152.078 75.8429 152.063C75.9086 152.048 75.9768 152.046 76.0431 152.059C76.1094 152.071 76.1724 152.097 76.2282 152.135L141.116 189.307C141.228 189.372 141.31 189.479 141.343 189.604C141.377 189.73 141.359 189.863 141.294 189.975C141.252 190.05 141.191 190.113 141.117 190.156C141.043 190.199 140.959 190.222 140.874 190.223Z" fill="#455A64"/>
<path d="M136.276 194.225C136.192 194.224 136.109 194.203 136.034 194.162L76.4964 160.051C76.3946 159.982 76.3227 159.877 76.2949 159.757C76.2672 159.637 76.2857 159.511 76.3468 159.404C76.4079 159.297 76.5071 159.217 76.6245 159.18C76.7419 159.143 76.869 159.152 76.9803 159.204L136.518 193.316C136.614 193.367 136.69 193.449 136.733 193.549C136.776 193.649 136.785 193.761 136.757 193.866C136.729 193.971 136.666 194.064 136.579 194.129C136.492 194.194 136.385 194.228 136.276 194.225Z" fill="#455A64"/>
<path d="M132 198.428C131.915 198.428 131.831 198.404 131.758 198.36L76.8805 166.91C76.8246 166.879 76.7755 166.837 76.736 166.787C76.6965 166.737 76.6673 166.679 76.6502 166.617C76.633 166.556 76.6283 166.491 76.6362 166.428C76.6442 166.364 76.6646 166.303 76.6964 166.248C76.7614 166.135 76.8678 166.053 76.9927 166.019C77.1177 165.984 77.2511 166 77.3644 166.063L132.263 197.513C132.358 197.566 132.432 197.65 132.474 197.75C132.516 197.85 132.523 197.962 132.495 198.067C132.467 198.172 132.404 198.264 132.317 198.33C132.231 198.395 132.124 198.43 132.016 198.428H132Z" fill="#455A64"/>
<path d="M72.7145 126.766C72.3907 126.765 72.0764 126.656 71.8205 126.458C71.5647 126.259 71.3817 125.982 71.3001 125.668C71.2184 125.355 71.2427 125.024 71.3692 124.725C71.4956 124.427 71.7171 124.179 71.9991 124.02L96.1215 110.497C96.4589 110.327 96.8487 110.294 97.21 110.404C97.5712 110.514 97.876 110.76 98.061 111.089C98.246 111.418 98.2969 111.806 98.2031 112.172C98.1093 112.538 97.8781 112.853 97.5575 113.053L73.4299 126.577C73.2114 126.7 72.9652 126.765 72.7145 126.766Z" fill="#7DE4A1"/>
<path d="M69.932 127.85C69.716 127.849 69.5062 127.777 69.3353 127.645C69.1645 127.513 69.0422 127.328 68.9875 127.119C68.9329 126.91 68.9489 126.688 69.0332 126.49C69.1175 126.291 69.2652 126.125 69.4533 126.019L71.8361 124.683C71.9485 124.61 72.0747 124.56 72.2069 124.538C72.3391 124.516 72.4745 124.521 72.6048 124.553C72.735 124.585 72.8572 124.643 72.9638 124.725C73.0705 124.806 73.1593 124.908 73.2247 125.025C73.2901 125.142 73.3307 125.272 73.3441 125.405C73.3574 125.539 73.3432 125.673 73.3022 125.801C73.2613 125.929 73.1945 126.047 73.1061 126.148C73.0177 126.248 72.9095 126.33 72.7882 126.387L70.4107 127.723C70.2644 127.805 70.0997 127.849 69.932 127.85Z" fill="#455A64"/>
<path d="M103.401 110.939C102.76 109.587 101.823 107.436 100.508 106.731L93.7282 102.57L79.2527 92.8127L70.7999 96.8156C75.2288 101.639 89.5623 106.81 89.5623 106.81C89.7195 107.244 89.9167 107.663 90.1514 108.061H90.1094C90.2093 108.288 93.4652 115.589 94.5435 115.478C95.0169 115.436 95.1011 114.8 95.0695 114.1L94.4857 111.275C95.2063 111.486 95.8638 111.612 96.3425 111.738C97.0578 111.928 97.7627 113.316 98.1361 113.947C98.2304 114.11 98.3564 114.252 98.5067 114.366C98.6569 114.479 98.8284 114.561 99.0109 114.606C99.1934 114.652 99.3832 114.66 99.5691 114.631C99.755 114.602 99.9331 114.536 100.093 114.437L102.923 112.69C103.127 112.562 103.293 112.381 103.403 112.166C103.514 111.951 103.564 111.711 103.549 111.47C103.54 111.284 103.49 111.103 103.401 110.939Z" fill="#FFA8A7"/>
<path d="M58.5441 67.0019L53.0264 90.8507C52.6742 92.3881 52.8734 94.0004 53.5892 95.4059C54.0054 96.2172 54.583 96.9348 55.2866 97.5148C55.9902 98.0947 56.8049 98.5248 57.6808 98.7785C58.5566 99.0321 59.475 99.1041 60.3797 98.99C61.2843 98.8759 62.1561 98.578 62.9414 98.1148L75.3656 90.7771V67.0019H58.5441Z" fill="#263238"/>
<path d="M60.99 85.8169L73.614 80.6673C74.5349 80.2861 75.5355 80.1378 76.5274 80.2353C77.5192 80.3329 78.4718 80.6734 79.3007 81.2267C80.1297 81.7801 80.8095 82.5291 81.28 83.4077C81.7505 84.2863 81.9973 85.2673 81.9984 86.264V92.9442L62.8889 98.9038L60.99 85.8169Z" fill="#FFA8A7"/>
<path d="M72.6777 81.3406C72.6777 81.3406 76.67 83.8339 77.2118 87.9735C77.2118 87.9735 75.0447 91.4398 68.1646 91.24C68.1646 91.24 66.5866 85.738 63.883 84.6439L60.99 85.8169L60.7743 99.6402L62.7416 102.46C62.9796 102.798 63.1215 103.196 63.1521 103.609C63.1826 104.022 63.1007 104.435 62.9151 104.805L61.2793 108.082C61.2793 108.082 64.2301 113.153 71.9413 113.153C74.7845 113.091 77.5105 112.009 79.6209 110.102L79.4 101.344C79.4 101.344 89.1678 94.7484 75.0342 80.4412L72.6777 81.3406Z" fill="#7DE4A1"/>
<path d="M62.042 61.8734C62.042 61.8734 61.3108 59.0908 60.8164 59.1382C60.322 59.1855 60.3798 61.6262 60.3798 61.6262C60.3798 61.6262 58.0654 61.421 58.3074 62.0838C58.5493 62.7465 61.2477 63.4303 61.2477 63.4303L62.042 61.8734Z" fill="#263238"/>
<path d="M58.4441 71.536C59.4961 79.3944 66.1185 79.3944 66.1185 79.3944L79.9996 73.2876C80.7761 72.4576 81.2569 71.3944 81.3672 70.2631C81.4917 69.4014 81.4917 68.5263 81.3672 67.6646V67.6383C80.9201 64.3351 78.4532 60.8003 73.0669 59.6905C71.8875 59.4557 70.6874 59.3411 69.4849 59.3486C68.9052 59.3467 68.3258 59.3748 67.7491 59.4327C63.5411 59.843 60.6323 61.7997 59.2384 64.8348C58.9256 65.5212 58.6926 66.2413 58.5441 66.9808C58.2551 68.4828 58.2213 70.0228 58.4441 71.536Z" fill="#263238"/>
<path d="M67.6807 86.7532C68.1538 87.1213 68.7207 87.3493 69.317 87.4113C69.9132 87.4732 70.5149 87.3666 71.0535 87.1036C71.5922 86.8405 72.0463 86.4316 72.3641 85.9234C72.6819 85.4151 72.8507 84.8278 72.8513 84.2284V74.0818H66.1185V83.5498C66.1185 84.1674 66.2592 84.7768 66.5299 85.3318C66.8006 85.8868 67.1942 86.3729 67.6807 86.7532Z" fill="#FFA8A7"/>
<path d="M72.8513 82.9502C71.3536 82.3955 69.9845 81.5419 68.827 80.4414C67.6696 79.3409 66.7481 78.0166 66.1185 76.5488V74.0818H72.8513V82.9502Z" fill="#F28F8F"/>
<path d="M71.3942 61.7103C73.9506 61.7103 79.3736 63.1358 80.0048 69.8107C80.636 76.4857 80.0048 81.672 76.5753 82.1717C73.1458 82.6714 65.1296 80.1729 64.0565 71.5255C62.9835 62.878 68.9062 61.7103 71.3942 61.7103Z" fill="#FFA8A7"/>
<path d="M75.4129 72.6406V76.5803L77.722 75.8702L75.4129 72.6406Z" fill="#F28F8F"/>
<path d="M72.036 73.3191C72.0349 73.4785 72.0812 73.6346 72.169 73.7677C72.2568 73.9007 72.3821 74.0047 72.5291 74.0664C72.6761 74.1281 72.838 74.1448 72.9945 74.1144C73.151 74.0839 73.2949 74.0077 73.4079 73.8953C73.521 73.783 73.5982 73.6396 73.6297 73.4833C73.6611 73.3271 73.6455 73.165 73.5848 73.0177C73.524 72.8703 73.4209 72.7443 73.2884 72.6556C73.1559 72.567 73.0001 72.5196 72.8407 72.5196C72.6282 72.5196 72.4243 72.6037 72.2735 72.7535C72.1228 72.9033 72.0374 73.1066 72.036 73.3191Z" fill="#263238"/>
<path d="M77.3223 72.7616C77.3223 72.9207 77.3695 73.0763 77.4579 73.2087C77.5464 73.341 77.672 73.4442 77.8191 73.5051C77.9662 73.566 78.128 73.5819 78.2841 73.5509C78.4402 73.5198 78.5836 73.4432 78.6961 73.3306C78.8087 73.2181 78.8853 73.0747 78.9164 72.9186C78.9474 72.7625 78.9315 72.6007 78.8706 72.4536C78.8097 72.3065 78.7065 72.1809 78.5742 72.0924C78.4418 72.004 78.2862 71.9568 78.1271 71.9568C77.9136 71.9568 77.7089 72.0416 77.558 72.1925C77.4071 72.3434 77.3223 72.5481 77.3223 72.7616Z" fill="#263238"/>
<path d="M79.1054 71.0889L77.5274 70.1579C77.5274 70.1579 78.1271 69.5319 78.7267 69.9054C78.9018 70.0414 79.0317 70.2273 79.0993 70.4385C79.1669 70.6497 79.169 70.8764 79.1054 71.0889Z" fill="#263238"/>
<path d="M76.5017 78.1741C75.7367 78.2284 74.9755 78.0247 74.3399 77.5955C74.3399 77.5955 74.1926 78.7317 75.1447 78.9526C75.4259 78.9983 75.7142 78.9458 75.9613 78.8041C76.2084 78.6623 76.3992 78.4399 76.5017 78.1741Z" fill="#F28F8F"/>
<path d="M77.8693 63.9826C77.8693 63.9826 76.9068 73.2034 64.3669 73.4927C64.3669 73.4927 60.5797 64.3298 68.0489 61.3526C75.5181 58.3755 77.8693 63.9826 77.8693 63.9826Z" fill="#263238"/>
<path d="M66.4656 73.8241C67.2704 75.2233 67.0652 76.917 65.9396 77.5061C65.219 77.8796 63.0834 77.0748 62.2576 75.6756C61.4318 74.2765 61.9052 73.0824 62.9992 72.4512C64.0933 71.82 65.6608 72.4302 66.4656 73.8241Z" fill="#FFA8A7"/>
<path d="M62.8468 95.0692L60.7901 99.6402C61.3597 99.6433 61.9231 99.5231 62.4418 99.2878L63.3517 95.2376C63.3645 95.1735 63.3534 95.107 63.3205 95.0505C63.2877 94.9941 63.2354 94.9515 63.1735 94.9309C63.1115 94.9102 63.0441 94.9129 62.984 94.9383C62.9238 94.9638 62.8751 95.0104 62.8468 95.0692Z" fill="#F28F8F"/>
<path d="M82.5192 124.231C81.9621 122.847 80.9948 121.666 79.7472 120.848L78.5584 120.07C78.5584 120.07 81.8091 120.817 81.8512 119.723C81.8932 118.629 74.14 115.783 74.14 115.783L58.6283 104.016C58.6283 104.016 59.7223 102.228 61.0163 99.6244C63.2308 99.5034 64.5247 97.7045 65.2559 95.9424C65.9065 94.4104 66.0933 92.7212 65.7932 91.084C65.493 89.4468 64.7192 87.9337 63.5674 86.7321C63.4155 86.5716 63.2539 86.4206 63.0835 86.2798C62.7444 85.9275 62.3409 85.6435 61.8947 85.4434L60.8427 85.8695C58.246 86.9147 56.1348 88.8945 54.9252 91.4188C52.9369 95.5742 50.0913 101.939 49.6652 105.374C49.0025 110.707 68.9694 119.165 68.9694 119.165C70.1792 123.373 73.8244 124.914 75.4234 125.446C75.7694 125.559 76.0897 125.74 76.3659 125.977C76.642 126.215 76.8687 126.504 77.033 126.829C77.1165 126.998 77.2329 127.148 77.3755 127.27C77.518 127.393 77.6837 127.486 77.8627 127.543C78.0418 127.6 78.2305 127.621 78.4178 127.604C78.6051 127.587 78.787 127.533 78.9529 127.445L81.8932 125.867C82.1779 125.716 82.3982 125.467 82.5133 125.166C82.6284 124.865 82.6305 124.533 82.5192 124.231Z" fill="#FFA8A7"/>
<path d="M62.4417 99.2878L63.3517 95.2376C63.3601 95.2011 63.3606 95.1632 63.3532 95.1265C63.3458 95.0898 63.3306 95.0551 63.3087 95.0247C63.2868 94.9943 63.2587 94.9689 63.2262 94.9503C63.1937 94.9317 63.1576 94.9202 63.1203 94.9167C62.4575 96.6209 61.7158 98.2358 61.0163 99.6507C61.5101 99.621 61.9938 99.4979 62.4417 99.2878Z" fill="#F28F8F"/>
</svg>
