<svg width="162" height="56" viewBox="0 0 162 56" fill="none" xmlns="http://www.w3.org/2000/svg">
<path d="M0 56L30.3093 0L60.3299 56H45.6082L44.165 53.1134H38.6804C40.2969 53.1134 41.4708 49.2646 41.8557 47.3402C32.8495 40.8742 30.7904 29.2509 30.8866 24.2474C25.8062 27.2495 25.6907 37.8144 26.268 42.7216C24.4206 41.567 24.3436 34.543 24.5361 31.1753C18.9938 35.5629 17.9931 47.6289 18.1856 53.1134C15.1835 52.4206 14.6254 54.7491 14.7217 56H0Z" fill="#016F5B"/>
<path d="M76.2482 18.0485C76.1426 17.6813 75.9942 17.3569 75.8031 17.0752C75.6119 16.7885 75.378 16.5471 75.1014 16.3509C74.8298 16.1498 74.518 15.9963 74.1659 15.8907C73.8188 15.7851 73.4341 15.7323 73.0116 15.7323C72.2219 15.7323 71.5278 15.9284 70.9293 16.3208C70.3358 16.7131 69.8731 17.2839 69.5411 18.0334C69.2091 18.7778 69.0432 19.6881 69.0432 20.7645C69.0432 21.8408 69.2066 22.7562 69.5336 23.5107C69.8605 24.2651 70.3232 24.841 70.9217 25.2384C71.5203 25.6307 72.2269 25.8269 73.0418 25.8269C73.7811 25.8269 74.4123 25.6961 74.9354 25.4345C75.4635 25.168 75.8659 24.7933 76.1426 24.3104C76.4242 23.8276 76.565 23.2567 76.565 22.5978L77.229 22.6959H73.2455V20.2364H79.7111V22.1829C79.7111 23.5409 79.4244 24.7078 78.851 25.6835C78.2777 26.6542 77.488 27.4037 76.4821 27.9318C75.4761 28.4549 74.3243 28.7164 73.0267 28.7164C71.5781 28.7164 70.3056 28.397 69.2091 27.7583C68.1127 27.1145 67.2576 26.2016 66.644 25.0196C66.0354 23.8326 65.7311 22.4243 65.7311 20.7947C65.7311 19.5423 65.9122 18.4257 66.2743 17.4449C66.6415 16.4591 67.1545 15.6242 67.8134 14.9401C68.4723 14.2561 69.2393 13.7355 70.1145 13.3784C70.9896 13.0213 71.9377 12.8427 72.9588 12.8427C73.8339 12.8427 74.6487 12.971 75.4032 13.2275C76.1576 13.479 76.8266 13.8361 77.41 14.2988C77.9985 14.7616 78.4788 15.3123 78.851 15.9511C79.2232 16.5848 79.4621 17.2839 79.5678 18.0485H76.2482ZM82.1046 28.5052V16.9168H85.2205V18.9387H85.3412C85.5525 18.2195 85.907 17.6763 86.405 17.3091C86.9029 16.9369 87.4763 16.7508 88.1251 16.7508C88.2861 16.7508 88.4596 16.7609 88.6457 16.781C88.8318 16.8011 88.9953 16.8288 89.1361 16.864V19.7158C88.9852 19.6705 88.7765 19.6303 88.5099 19.5951C88.2433 19.5599 87.9994 19.5423 87.7781 19.5423C87.3053 19.5423 86.8828 19.6454 86.5106 19.8516C86.1434 20.0528 85.8517 20.3344 85.6354 20.6966C85.4242 21.0587 85.3186 21.4762 85.3186 21.949V28.5052H82.1046ZM95.5395 28.7315C94.3475 28.7315 93.3214 28.4901 92.4613 28.0072C91.6063 27.5193 90.9474 26.8303 90.4847 25.94C90.0219 25.0447 89.7906 23.986 89.7906 22.7638C89.7906 21.5717 90.0219 20.5256 90.4847 19.6253C90.9474 18.7249 91.5988 18.0233 92.4387 17.5203C93.2837 17.0174 94.2745 16.7659 95.4113 16.7659C96.1758 16.7659 96.8875 16.8891 97.5463 17.1356C98.2103 17.377 98.7887 17.7416 99.2816 18.2295C99.7795 18.7174 100.167 19.331 100.443 20.0704C100.72 20.8047 100.858 21.6648 100.858 22.6506V23.5333H91.0732V21.5416H97.833C97.833 21.0788 97.7324 20.6689 97.5313 20.3118C97.3301 19.9547 97.0509 19.6756 96.6938 19.4744C96.3417 19.2682 95.9318 19.165 95.4641 19.165C94.9762 19.165 94.5436 19.2782 94.1664 19.5045C93.7942 19.7259 93.5025 20.0251 93.2912 20.4023C93.08 20.7745 92.9719 21.1895 92.9668 21.6472V23.5409C92.9668 24.1142 93.0724 24.6097 93.2837 25.0271C93.5 25.4446 93.8043 25.7665 94.1966 25.9928C94.5889 26.2192 95.0541 26.3323 95.5923 26.3323C95.9494 26.3323 96.2764 26.282 96.5731 26.1814C96.8699 26.0809 97.1239 25.93 97.3351 25.7288C97.5463 25.5276 97.7073 25.2811 97.818 24.9894L100.79 25.1856C100.64 25.8998 100.33 26.5235 99.8625 27.0566C99.3998 27.5847 98.8013 27.9972 98.0669 28.2939C97.3376 28.5856 96.4951 28.7315 95.5395 28.7315ZM108.237 28.7315C107.045 28.7315 106.019 28.4901 105.159 28.0072C104.304 27.5193 103.645 26.8303 103.182 25.94C102.719 25.0447 102.488 23.986 102.488 22.7638C102.488 21.5717 102.719 20.5256 103.182 19.6253C103.645 18.7249 104.296 18.0233 105.136 17.5203C105.981 17.0174 106.972 16.7659 108.109 16.7659C108.873 16.7659 109.585 16.8891 110.244 17.1356C110.908 17.377 111.486 17.7416 111.979 18.2295C112.477 18.7174 112.864 19.331 113.141 20.0704C113.418 20.8047 113.556 21.6648 113.556 22.6506V23.5333H103.771V21.5416H110.53C110.53 21.0788 110.43 20.6689 110.229 20.3118C110.027 19.9547 109.748 19.6756 109.391 19.4744C109.039 19.2682 108.629 19.165 108.161 19.165C107.674 19.165 107.241 19.2782 106.864 19.5045C106.492 19.7259 106.2 20.0251 105.989 20.4023C105.777 20.7745 105.669 21.1895 105.664 21.6472V23.5409C105.664 24.1142 105.77 24.6097 105.981 25.0271C106.197 25.4446 106.502 25.7665 106.894 25.9928C107.286 26.2192 107.752 26.3323 108.29 26.3323C108.647 26.3323 108.974 26.282 109.271 26.1814C109.567 26.0809 109.821 25.93 110.033 25.7288C110.244 25.5276 110.405 25.2811 110.515 24.9894L113.488 25.1856C113.337 25.8998 113.028 26.5235 112.56 27.0566C112.097 27.5847 111.499 27.9972 110.764 28.2939C110.035 28.5856 109.193 28.7315 108.237 28.7315ZM118.867 21.8056V28.5052H115.653V16.9168H118.716V18.9613H118.852C119.109 18.2874 119.539 17.7542 120.142 17.3619C120.746 16.9646 121.478 16.7659 122.338 16.7659C123.142 16.7659 123.844 16.9419 124.443 17.294C125.041 17.6461 125.506 18.149 125.838 18.8029C126.17 19.4517 126.336 20.2263 126.336 21.1266V28.5052H123.122V21.7C123.127 20.9908 122.946 20.4376 122.579 20.0402C122.212 19.6378 121.706 19.4366 121.063 19.4366C120.63 19.4366 120.248 19.5297 119.916 19.7158C119.589 19.9019 119.332 20.1735 119.146 20.5306C118.965 20.8827 118.872 21.3077 118.867 21.8056ZM128.93 28.5052V13.054H132.196V19.4291H138.828V13.054H142.087V28.5052H138.828V22.1225H132.196V28.5052H128.93ZM144.72 28.5052V16.9168H147.934V28.5052H144.72ZM146.335 15.423C145.857 15.423 145.447 15.2645 145.105 14.9477C144.768 14.6258 144.6 14.241 144.6 13.7933C144.6 13.3507 144.768 12.971 145.105 12.6541C145.447 12.3322 145.857 12.1713 146.335 12.1713C146.813 12.1713 147.22 12.3322 147.557 12.6541C147.899 12.971 148.07 13.3507 148.07 13.7933C148.07 14.241 147.899 14.6258 147.557 14.9477C147.22 15.2645 146.813 15.423 146.335 15.423ZM153.723 13.054V28.5052H150.509V13.054H153.723ZM159.511 13.054V28.5052H156.297V13.054H159.511Z" fill="black"/>
<path d="M75.4594 39.1795H74.3489C74.2832 38.86 74.1683 38.5794 74.0041 38.3376C73.8429 38.0958 73.6458 37.8928 73.413 37.7286C73.1831 37.5614 72.9278 37.436 72.6472 37.3524C72.3666 37.2689 72.074 37.2271 71.7695 37.2271C71.2143 37.2271 70.7112 37.3674 70.2604 37.648C69.8126 37.9286 69.4559 38.3421 69.1902 38.8884C68.9275 39.4347 68.7961 40.1049 68.7961 40.899C68.7961 41.6932 68.9275 42.3634 69.1902 42.9097C69.4559 43.456 69.8126 43.8695 70.2604 44.1501C70.7112 44.4307 71.2143 44.571 71.7695 44.571C72.074 44.571 72.3666 44.5292 72.6472 44.4457C72.9278 44.3621 73.1831 44.2382 73.413 44.074C73.6458 43.9068 73.8429 43.7023 74.0041 43.4605C74.1683 43.2157 74.2832 42.9351 74.3489 42.6186H75.4594C75.3758 43.0873 75.2236 43.5068 75.0027 43.8769C74.7818 44.2471 74.5071 44.5621 74.1787 44.8218C73.8503 45.0785 73.4816 45.2741 73.0726 45.4084C72.6666 45.5428 72.2323 45.6099 71.7695 45.6099C70.9874 45.6099 70.2918 45.4189 69.6828 45.0368C69.0738 44.6546 68.5946 44.1113 68.2453 43.4067C67.896 42.7022 67.7214 41.8663 67.7214 40.899C67.7214 39.9318 67.896 39.0959 68.2453 38.3913C68.5946 37.6868 69.0738 37.1435 69.6828 36.7613C70.2918 36.3792 70.9874 36.1882 71.7695 36.1882C72.2323 36.1882 72.6666 36.2553 73.0726 36.3897C73.4816 36.524 73.8503 36.721 74.1787 36.9808C74.5071 37.2375 74.7818 37.551 75.0027 37.9212C75.2236 38.2884 75.3758 38.7078 75.4594 39.1795ZM79.1348 45.6458C78.6989 45.6458 78.3034 45.5637 77.9481 45.3995C77.5928 45.2323 77.3107 44.992 77.1018 44.6785C76.8928 44.3621 76.7883 43.9799 76.7883 43.5321C76.7883 43.1381 76.8659 42.8186 77.0211 42.5738C77.1764 42.326 77.3839 42.132 77.6436 41.9917C77.9033 41.8514 78.1899 41.7469 78.5034 41.6782C78.8198 41.6066 79.1378 41.5499 79.4572 41.5081C79.8751 41.4543 80.214 41.414 80.4737 41.3872C80.7364 41.3573 80.9275 41.308 81.0469 41.2394C81.1693 41.1707 81.2305 41.0513 81.2305 40.8811V40.8453C81.2305 40.4035 81.1096 40.0602 80.8678 39.8154C80.629 39.5706 80.2662 39.4482 79.7796 39.4482C79.2751 39.4482 78.8795 39.5586 78.5929 39.7795C78.3063 40.0005 78.1048 40.2363 77.9884 40.4871L76.9853 40.1288C77.1644 39.7109 77.4033 39.3855 77.7018 39.1526C78.0033 38.9168 78.3317 38.7526 78.687 38.66C79.0452 38.5645 79.3975 38.5167 79.7438 38.5167C79.9647 38.5167 80.2185 38.5436 80.5051 38.5973C80.7946 38.6481 81.0738 38.7541 81.3425 38.9153C81.6141 39.0765 81.8395 39.3198 82.0186 39.6452C82.1978 39.9706 82.2873 40.4065 82.2873 40.9528V45.4846H81.2305V44.5531H81.1768C81.1051 44.7024 80.9857 44.8621 80.8185 45.0323C80.6513 45.2024 80.4289 45.3472 80.1513 45.4666C79.8737 45.5861 79.5348 45.6458 79.1348 45.6458ZM79.296 44.6964C79.7139 44.6964 80.0662 44.6143 80.3528 44.4501C80.6424 44.2859 80.8603 44.074 81.0066 43.8143C81.1559 43.5545 81.2305 43.2814 81.2305 42.9948V42.0275C81.1857 42.0813 81.0872 42.1305 80.9349 42.1753C80.7857 42.2171 80.6125 42.2544 80.4155 42.2872C80.2214 42.3171 80.0319 42.344 79.8468 42.3678C79.6647 42.3887 79.5169 42.4067 79.4035 42.4216C79.1288 42.4574 78.8721 42.5156 78.6332 42.5962C78.3974 42.6738 78.2063 42.7918 78.0601 42.95C77.9168 43.1052 77.8451 43.3172 77.8451 43.5859C77.8451 43.9531 77.9809 44.2307 78.2526 44.4188C78.5273 44.6039 78.8751 44.6964 79.296 44.6964ZM84.2162 45.4846V38.6063H85.2372V39.681H85.3268C85.4701 39.3138 85.7014 39.0287 86.0209 38.8257C86.3403 38.6197 86.7239 38.5167 87.1717 38.5167C87.6255 38.5167 88.0032 38.6197 88.3047 38.8257C88.6092 39.0287 88.8465 39.3138 89.0167 39.681H89.0883C89.2645 39.3258 89.5287 39.0436 89.8809 38.8347C90.2332 38.6227 90.6556 38.5167 91.1482 38.5167C91.7632 38.5167 92.2662 38.7093 92.6573 39.0944C93.0484 39.4765 93.244 40.0721 93.244 40.8811V45.4846H92.1871V40.8811C92.1871 40.3736 92.0483 40.0109 91.7707 39.793C91.493 39.575 91.1661 39.4661 90.79 39.4661C90.3064 39.4661 89.9317 39.6124 89.666 39.9049C89.4003 40.1945 89.2675 40.5617 89.2675 41.0065V45.4846H88.1927V40.7737C88.1927 40.3826 88.0658 40.0676 87.8121 39.8288C87.5583 39.587 87.2314 39.4661 86.8314 39.4661C86.5568 39.4661 86.3 39.5392 86.0612 39.6855C85.8253 39.8318 85.6343 40.0348 85.488 40.2945C85.3447 40.5513 85.273 40.8483 85.273 41.1856V45.4846H84.2162ZM95.1762 48.0639V38.6063H96.1972V39.6989H96.3226C96.4002 39.5795 96.5077 39.4273 96.645 39.2422C96.7853 39.0541 96.9854 38.8869 97.2451 38.7406C97.5078 38.5914 97.863 38.5167 98.3109 38.5167C98.89 38.5167 99.4005 38.6615 99.8423 38.9511C100.284 39.2407 100.629 39.6512 100.877 40.1826C101.125 40.714 101.248 41.3409 101.248 42.0633C101.248 42.7918 101.125 43.4232 100.877 43.9575C100.629 44.4889 100.286 44.9009 99.8468 45.1935C99.408 45.4831 98.902 45.6279 98.3288 45.6279C97.8869 45.6279 97.5332 45.5547 97.2675 45.4084C97.0018 45.2592 96.7973 45.0905 96.654 44.9024C96.5107 44.7114 96.4002 44.5531 96.3226 44.4277H96.233V48.0639H95.1762ZM96.2151 42.0454C96.2151 42.5649 96.2913 43.0231 96.4435 43.4202C96.5958 43.8143 96.8182 44.1232 97.1107 44.3471C97.4033 44.5681 97.7615 44.6785 98.1855 44.6785C98.6273 44.6785 98.996 44.5621 99.2915 44.3292C99.5901 44.0934 99.814 43.7769 99.9632 43.3799C100.115 42.9798 100.192 42.535 100.192 42.0454C100.192 41.5618 100.117 41.1259 99.9677 40.7378C99.8214 40.3468 99.599 40.0378 99.3005 39.8109C99.0049 39.581 98.6333 39.4661 98.1855 39.4661C97.7556 39.4661 97.3943 39.575 97.1018 39.793C96.8092 40.0079 96.5883 40.3094 96.439 40.6975C96.2898 41.0826 96.2151 41.5319 96.2151 42.0454ZM102.861 45.4846V38.6063H103.917V45.4846H102.861ZM103.398 37.4599C103.192 37.4599 103.014 37.3898 102.865 37.2494C102.719 37.1091 102.646 36.9405 102.646 36.7434C102.646 36.5464 102.719 36.3777 102.865 36.2374C103.014 36.0971 103.192 36.0269 103.398 36.0269C103.604 36.0269 103.78 36.0971 103.926 36.2374C104.076 36.3777 104.15 36.5464 104.15 36.7434C104.15 36.9405 104.076 37.1091 103.926 37.2494C103.78 37.3898 103.604 37.4599 103.398 37.4599ZM106.91 41.3469V45.4846H105.853V38.6063H106.874V39.681H106.964C107.125 39.3317 107.37 39.0511 107.698 38.8392C108.026 38.6242 108.45 38.5167 108.97 38.5167C109.435 38.5167 109.843 38.6123 110.192 38.8033C110.541 38.9914 110.813 39.278 111.007 39.6631C111.201 40.0452 111.298 40.5289 111.298 41.114V45.4846H110.241V41.1856C110.241 40.6453 110.101 40.2244 109.821 39.9228C109.54 39.6183 109.155 39.4661 108.665 39.4661C108.328 39.4661 108.026 39.5392 107.761 39.6855C107.498 39.8318 107.29 40.0452 107.138 40.3259C106.986 40.6065 106.91 40.9468 106.91 41.3469ZM116.006 48.2072C115.495 48.2072 115.056 48.1415 114.689 48.0102C114.322 47.8818 114.016 47.7116 113.771 47.4997C113.529 47.2907 113.337 47.0668 113.194 46.828L114.035 46.2369C114.131 46.3623 114.252 46.5056 114.398 46.6668C114.544 46.831 114.744 46.9728 114.998 47.0922C115.255 47.2146 115.591 47.2758 116.006 47.2758C116.561 47.2758 117.019 47.1414 117.381 46.8727C117.742 46.6041 117.922 46.1831 117.922 45.6099V44.2128H117.833C117.755 44.3382 117.645 44.4934 117.501 44.6785C117.361 44.8606 117.158 45.0233 116.892 45.1666C116.63 45.3069 116.274 45.3771 115.827 45.3771C115.271 45.3771 114.773 45.2457 114.331 44.983C113.892 44.7203 113.544 44.3382 113.288 43.8366C113.034 43.3351 112.907 42.7261 112.907 42.0096C112.907 41.3051 113.031 40.6916 113.279 40.1691C113.526 39.6437 113.871 39.2377 114.313 38.9511C114.755 38.6615 115.265 38.5167 115.845 38.5167C116.292 38.5167 116.648 38.5914 116.91 38.7406C117.176 38.8869 117.379 39.0541 117.519 39.2422C117.663 39.4273 117.773 39.5795 117.851 39.6989H117.958V38.6063H118.979V45.6816C118.979 46.2727 118.845 46.7533 118.576 47.1235C118.311 47.4967 117.952 47.7698 117.501 47.943C117.054 48.1191 116.555 48.2072 116.006 48.2072ZM115.97 44.4277C116.394 44.4277 116.752 44.3307 117.045 44.1367C117.337 43.9426 117.56 43.6635 117.712 43.2993C117.864 42.9351 117.94 42.4992 117.94 41.9917C117.94 41.4961 117.866 41.0588 117.716 40.6796C117.567 40.3005 117.346 40.0034 117.054 39.7885C116.761 39.5735 116.4 39.4661 115.97 39.4661C115.522 39.4661 115.149 39.5795 114.85 39.8064C114.555 40.0333 114.333 40.3378 114.183 40.7199C114.037 41.1021 113.964 41.526 113.964 41.9917C113.964 42.4693 114.038 42.8918 114.188 43.259C114.34 43.6232 114.564 43.9098 114.859 44.1188C115.158 44.3247 115.528 44.4277 115.97 44.4277Z" fill="black"/>
</svg>
