<svg width="162" height="56" viewBox="0 0 162 56" fill="none" xmlns="http://www.w3.org/2000/svg">
<path d="M0 56L30.3093 0L60.3299 56H45.6082L44.165 53.1134H38.6804C40.2969 53.1134 41.4708 49.2646 41.8557 47.3402C32.8495 40.8742 30.7904 29.2509 30.8866 24.2474C25.8062 27.2495 25.6907 37.8144 26.268 42.7216C24.4206 41.567 24.3436 34.543 24.5361 31.1753C18.9938 35.5629 17.9931 47.6289 18.1856 53.1134C15.1835 52.4206 14.6254 54.7491 14.7217 56H0Z" fill="white"/>
<path d="M76.2483 18.0486C76.1427 17.6814 75.9943 17.357 75.8032 17.0753C75.612 16.7886 75.3781 16.5472 75.1015 16.351C74.8299 16.1499 74.5181 15.9964 74.166 15.8908C73.8189 15.7852 73.4342 15.7324 73.0117 15.7324C72.222 15.7324 71.5279 15.9285 70.9294 16.3209C70.3359 16.7132 69.8732 17.284 69.5412 18.0335C69.2092 18.7779 69.0433 19.6882 69.0433 20.7646C69.0433 21.8409 69.2067 22.7563 69.5337 23.5108C69.8606 24.2652 70.3233 24.8411 70.9218 25.2385C71.5204 25.6308 72.227 25.827 73.0419 25.827C73.7812 25.827 74.4124 25.6962 74.9355 25.4346C75.4636 25.1681 75.866 24.7934 76.1427 24.3105C76.4243 23.8277 76.5651 23.2568 76.5651 22.5979L77.2291 22.696H73.2456V20.2365H79.7112V22.183C79.7112 23.541 79.4245 24.7079 78.8511 25.6836C78.2778 26.6543 77.4881 27.4038 76.4822 27.9319C75.4762 28.455 74.3244 28.7165 73.0268 28.7165C71.5782 28.7165 70.3057 28.3971 69.2092 27.7584C68.1128 27.1146 67.2577 26.2017 66.6441 25.0197C66.0355 23.8327 65.7312 22.4244 65.7312 20.7948C65.7312 19.5424 65.9123 18.4258 66.2744 17.445C66.6416 16.4592 67.1546 15.6243 67.8135 14.9402C68.4724 14.2562 69.2394 13.7356 70.1146 13.3785C70.9897 13.0214 71.9378 12.8428 72.9589 12.8428C73.834 12.8428 74.6488 12.9711 75.4033 13.2276C76.1577 13.4791 76.8267 13.8362 77.4101 14.2989C77.9986 14.7617 78.4789 15.3124 78.8511 15.9512C79.2233 16.5849 79.4622 17.284 79.5679 18.0486H76.2483ZM82.1047 28.5053V16.9169H85.2206V18.9388H85.3413C85.5526 18.2196 85.9071 17.6764 86.4051 17.3092C86.903 16.937 87.4764 16.7509 88.1252 16.7509C88.2862 16.7509 88.4597 16.761 88.6458 16.7811C88.8319 16.8012 88.9954 16.8289 89.1362 16.8641V19.7159C88.9853 19.6706 88.7766 19.6304 88.51 19.5952C88.2434 19.56 87.9995 19.5424 87.7782 19.5424C87.3054 19.5424 86.8829 19.6455 86.5107 19.8517C86.1435 20.0529 85.8518 20.3345 85.6355 20.6967C85.4243 21.0588 85.3187 21.4763 85.3187 21.9491V28.5053H82.1047ZM95.5396 28.7316C94.3476 28.7316 93.3215 28.4902 92.4614 28.0073C91.6064 27.5194 90.9475 26.8304 90.4848 25.9401C90.022 25.0448 89.7907 23.9861 89.7907 22.7639C89.7907 21.5718 90.022 20.5257 90.4848 19.6254C90.9475 18.725 91.5989 18.0234 92.4388 17.5204C93.2838 17.0175 94.2746 16.766 95.4114 16.766C96.1759 16.766 96.8876 16.8892 97.5464 17.1357C98.2104 17.3771 98.7888 17.7417 99.2817 18.2296C99.7796 18.7175 100.167 19.3311 100.443 20.0705C100.72 20.8048 100.858 21.6649 100.858 22.6507V23.5334H91.0733V21.5417H97.8331C97.8331 21.0789 97.7325 20.669 97.5314 20.3119C97.3302 19.9548 97.051 19.6757 96.6939 19.4745C96.3418 19.2683 95.9319 19.1651 95.4642 19.1651C94.9763 19.1651 94.5437 19.2783 94.1665 19.5046C93.7943 19.726 93.5026 20.0252 93.2913 20.4024C93.0801 20.7746 92.972 21.1896 92.9669 21.6473V23.541C92.9669 24.1143 93.0725 24.6098 93.2838 25.0272C93.5001 25.4447 93.8044 25.7666 94.1967 25.9929C94.589 26.2193 95.0542 26.3324 95.5924 26.3324C95.9495 26.3324 96.2765 26.2821 96.5732 26.1815C96.87 26.081 97.124 25.9301 97.3352 25.7289C97.5464 25.5277 97.7074 25.2812 97.8181 24.9895L100.79 25.1857C100.64 25.8999 100.33 26.5236 99.8626 27.0567C99.3999 27.5848 98.8014 27.9973 98.067 28.294C97.3377 28.5857 96.4952 28.7316 95.5396 28.7316ZM108.237 28.7316C107.045 28.7316 106.019 28.4902 105.159 28.0073C104.304 27.5194 103.645 26.8304 103.182 25.9401C102.719 25.0448 102.488 23.9861 102.488 22.7639C102.488 21.5718 102.719 20.5257 103.182 19.6254C103.645 18.725 104.296 18.0234 105.136 17.5204C105.981 17.0175 106.972 16.766 108.109 16.766C108.873 16.766 109.585 16.8892 110.244 17.1357C110.908 17.3771 111.486 17.7417 111.979 18.2296C112.477 18.7175 112.864 19.3311 113.141 20.0705C113.418 20.8048 113.556 21.6649 113.556 22.6507V23.5334H103.771V21.5417H110.53C110.53 21.0789 110.43 20.669 110.229 20.3119C110.027 19.9548 109.748 19.6757 109.391 19.4745C109.039 19.2683 108.629 19.1651 108.161 19.1651C107.674 19.1651 107.241 19.2783 106.864 19.5046C106.492 19.726 106.2 20.0252 105.989 20.4024C105.777 20.7746 105.669 21.1896 105.664 21.6473V23.541C105.664 24.1143 105.77 24.6098 105.981 25.0272C106.197 25.4447 106.502 25.7666 106.894 25.9929C107.286 26.2193 107.752 26.3324 108.29 26.3324C108.647 26.3324 108.974 26.2821 109.271 26.1815C109.567 26.081 109.821 25.9301 110.033 25.7289C110.244 25.5277 110.405 25.2812 110.515 24.9895L113.488 25.1857C113.337 25.8999 113.028 26.5236 112.56 27.0567C112.097 27.5848 111.499 27.9973 110.764 28.294C110.035 28.5857 109.193 28.7316 108.237 28.7316ZM118.867 21.8057V28.5053H115.653V16.9169H118.716V18.9614H118.852C119.109 18.2875 119.539 17.7543 120.142 17.362C120.746 16.9647 121.478 16.766 122.338 16.766C123.142 16.766 123.844 16.942 124.443 17.2941C125.041 17.6462 125.506 18.1491 125.838 18.803C126.17 19.4518 126.336 20.2264 126.336 21.1267V28.5053H123.122V21.7001C123.127 20.9909 122.946 20.4377 122.579 20.0403C122.212 19.6379 121.706 19.4367 121.063 19.4367C120.63 19.4367 120.248 19.5298 119.916 19.7159C119.589 19.902 119.332 20.1736 119.146 20.5307C118.965 20.8828 118.872 21.3078 118.867 21.8057ZM128.93 28.5053V13.0541H132.196V19.4292H138.828V13.0541H142.087V28.5053H138.828V22.1226H132.196V28.5053H128.93ZM144.72 28.5053V16.9169H147.934V28.5053H144.72ZM146.335 15.4231C145.857 15.4231 145.447 15.2646 145.105 14.9478C144.768 14.6259 144.6 14.2411 144.6 13.7934C144.6 13.3508 144.768 12.9711 145.105 12.6542C145.447 12.3323 145.857 12.1714 146.335 12.1714C146.813 12.1714 147.22 12.3323 147.557 12.6542C147.899 12.9711 148.07 13.3508 148.07 13.7934C148.07 14.2411 147.899 14.6259 147.557 14.9478C147.22 15.2646 146.813 15.4231 146.335 15.4231ZM153.723 13.0541V28.5053H150.509V13.0541H153.723ZM159.511 13.0541V28.5053H156.297V13.0541H159.511Z" fill="white"/>
<path d="M75.4594 39.1795H74.3489C74.2832 38.86 74.1683 38.5794 74.0041 38.3376C73.8429 38.0958 73.6458 37.8928 73.413 37.7286C73.1831 37.5614 72.9278 37.436 72.6472 37.3524C72.3666 37.2689 72.074 37.2271 71.7695 37.2271C71.2143 37.2271 70.7112 37.3674 70.2604 37.648C69.8126 37.9286 69.4559 38.3421 69.1902 38.8884C68.9275 39.4347 68.7961 40.1049 68.7961 40.899C68.7961 41.6932 68.9275 42.3634 69.1902 42.9097C69.4559 43.456 69.8126 43.8695 70.2604 44.1501C70.7112 44.4307 71.2143 44.571 71.7695 44.571C72.074 44.571 72.3666 44.5292 72.6472 44.4457C72.9278 44.3621 73.1831 44.2382 73.413 44.074C73.6458 43.9068 73.8429 43.7023 74.0041 43.4605C74.1683 43.2157 74.2832 42.9351 74.3489 42.6186H75.4594C75.3758 43.0873 75.2236 43.5068 75.0027 43.8769C74.7818 44.2471 74.5071 44.5621 74.1787 44.8218C73.8503 45.0785 73.4816 45.2741 73.0726 45.4084C72.6666 45.5428 72.2323 45.6099 71.7695 45.6099C70.9874 45.6099 70.2918 45.4189 69.6828 45.0368C69.0738 44.6546 68.5946 44.1113 68.2453 43.4067C67.896 42.7022 67.7214 41.8663 67.7214 40.899C67.7214 39.9318 67.896 39.0959 68.2453 38.3913C68.5946 37.6868 69.0738 37.1435 69.6828 36.7613C70.2918 36.3792 70.9874 36.1882 71.7695 36.1882C72.2323 36.1882 72.6666 36.2553 73.0726 36.3897C73.4816 36.524 73.8503 36.721 74.1787 36.9808C74.5071 37.2375 74.7818 37.551 75.0027 37.9212C75.2236 38.2884 75.3758 38.7078 75.4594 39.1795ZM79.1348 45.6458C78.6989 45.6458 78.3034 45.5637 77.9481 45.3995C77.5928 45.2323 77.3107 44.992 77.1018 44.6785C76.8928 44.3621 76.7883 43.9799 76.7883 43.5321C76.7883 43.1381 76.8659 42.8186 77.0211 42.5738C77.1764 42.326 77.3839 42.132 77.6436 41.9917C77.9033 41.8514 78.1899 41.7469 78.5034 41.6782C78.8198 41.6066 79.1378 41.5499 79.4572 41.5081C79.8751 41.4543 80.214 41.414 80.4737 41.3872C80.7364 41.3573 80.9275 41.308 81.0469 41.2394C81.1693 41.1707 81.2305 41.0513 81.2305 40.8811V40.8453C81.2305 40.4035 81.1096 40.0602 80.8678 39.8154C80.629 39.5706 80.2662 39.4482 79.7796 39.4482C79.2751 39.4482 78.8795 39.5586 78.5929 39.7795C78.3063 40.0005 78.1048 40.2363 77.9884 40.4871L76.9853 40.1288C77.1644 39.7109 77.4033 39.3855 77.7018 39.1526C78.0033 38.9168 78.3317 38.7526 78.687 38.66C79.0452 38.5645 79.3975 38.5167 79.7438 38.5167C79.9647 38.5167 80.2185 38.5436 80.5051 38.5973C80.7946 38.6481 81.0738 38.7541 81.3425 38.9153C81.6141 39.0765 81.8395 39.3198 82.0186 39.6452C82.1978 39.9706 82.2873 40.4065 82.2873 40.9528V45.4846H81.2305V44.5531H81.1768C81.1051 44.7024 80.9857 44.8621 80.8185 45.0323C80.6513 45.2024 80.4289 45.3472 80.1513 45.4666C79.8737 45.5861 79.5348 45.6458 79.1348 45.6458ZM79.296 44.6964C79.7139 44.6964 80.0662 44.6143 80.3528 44.4501C80.6424 44.2859 80.8603 44.074 81.0066 43.8143C81.1559 43.5545 81.2305 43.2814 81.2305 42.9948V42.0275C81.1857 42.0813 81.0872 42.1305 80.9349 42.1753C80.7857 42.2171 80.6125 42.2544 80.4155 42.2872C80.2214 42.3171 80.0319 42.344 79.8468 42.3678C79.6647 42.3887 79.5169 42.4067 79.4035 42.4216C79.1288 42.4574 78.8721 42.5156 78.6332 42.5962C78.3974 42.6738 78.2063 42.7918 78.0601 42.95C77.9168 43.1052 77.8451 43.3172 77.8451 43.5859C77.8451 43.9531 77.9809 44.2307 78.2526 44.4188C78.5273 44.6039 78.8751 44.6964 79.296 44.6964ZM84.2162 45.4846V38.6063H85.2372V39.681H85.3268C85.4701 39.3138 85.7014 39.0287 86.0209 38.8257C86.3403 38.6197 86.7239 38.5167 87.1717 38.5167C87.6255 38.5167 88.0032 38.6197 88.3047 38.8257C88.6092 39.0287 88.8465 39.3138 89.0167 39.681H89.0883C89.2645 39.3258 89.5287 39.0436 89.8809 38.8347C90.2332 38.6227 90.6556 38.5167 91.1482 38.5167C91.7632 38.5167 92.2662 38.7093 92.6573 39.0944C93.0484 39.4765 93.244 40.0721 93.244 40.8811V45.4846H92.1871V40.8811C92.1871 40.3736 92.0483 40.0109 91.7707 39.793C91.493 39.575 91.1661 39.4661 90.79 39.4661C90.3064 39.4661 89.9317 39.6124 89.666 39.9049C89.4003 40.1945 89.2675 40.5617 89.2675 41.0065V45.4846H88.1927V40.7737C88.1927 40.3826 88.0658 40.0676 87.8121 39.8288C87.5583 39.587 87.2314 39.4661 86.8314 39.4661C86.5568 39.4661 86.3 39.5392 86.0612 39.6855C85.8253 39.8318 85.6343 40.0348 85.488 40.2945C85.3447 40.5513 85.273 40.8483 85.273 41.1856V45.4846H84.2162ZM95.1762 48.0639V38.6063H96.1972V39.6989H96.3226C96.4002 39.5795 96.5077 39.4273 96.645 39.2422C96.7853 39.0541 96.9854 38.8869 97.2451 38.7406C97.5078 38.5914 97.863 38.5167 98.3109 38.5167C98.89 38.5167 99.4005 38.6615 99.8423 38.9511C100.284 39.2407 100.629 39.6512 100.877 40.1826C101.125 40.714 101.248 41.3409 101.248 42.0633C101.248 42.7918 101.125 43.4232 100.877 43.9575C100.629 44.4889 100.286 44.9009 99.8468 45.1935C99.408 45.4831 98.902 45.6279 98.3288 45.6279C97.8869 45.6279 97.5332 45.5547 97.2675 45.4084C97.0018 45.2592 96.7973 45.0905 96.654 44.9024C96.5107 44.7114 96.4002 44.5531 96.3226 44.4277H96.233V48.0639H95.1762ZM96.2151 42.0454C96.2151 42.5649 96.2913 43.0231 96.4435 43.4202C96.5958 43.8143 96.8182 44.1232 97.1107 44.3471C97.4033 44.5681 97.7615 44.6785 98.1855 44.6785C98.6273 44.6785 98.996 44.5621 99.2915 44.3292C99.5901 44.0934 99.814 43.7769 99.9632 43.3799C100.115 42.9798 100.192 42.535 100.192 42.0454C100.192 41.5618 100.117 41.1259 99.9677 40.7378C99.8214 40.3468 99.599 40.0378 99.3005 39.8109C99.0049 39.581 98.6333 39.4661 98.1855 39.4661C97.7556 39.4661 97.3943 39.575 97.1018 39.793C96.8092 40.0079 96.5883 40.3094 96.439 40.6975C96.2898 41.0826 96.2151 41.5319 96.2151 42.0454ZM102.861 45.4846V38.6063H103.917V45.4846H102.861ZM103.398 37.4599C103.192 37.4599 103.014 37.3898 102.865 37.2494C102.719 37.1091 102.646 36.9405 102.646 36.7434C102.646 36.5464 102.719 36.3777 102.865 36.2374C103.014 36.0971 103.192 36.0269 103.398 36.0269C103.604 36.0269 103.78 36.0971 103.926 36.2374C104.076 36.3777 104.15 36.5464 104.15 36.7434C104.15 36.9405 104.076 37.1091 103.926 37.2494C103.78 37.3898 103.604 37.4599 103.398 37.4599ZM106.91 41.3469V45.4846H105.853V38.6063H106.874V39.681H106.964C107.125 39.3317 107.37 39.0511 107.698 38.8392C108.026 38.6242 108.45 38.5167 108.97 38.5167C109.435 38.5167 109.843 38.6123 110.192 38.8033C110.541 38.9914 110.813 39.278 111.007 39.6631C111.201 40.0452 111.298 40.5289 111.298 41.114V45.4846H110.241V41.1856C110.241 40.6453 110.101 40.2244 109.821 39.9228C109.54 39.6183 109.155 39.4661 108.665 39.4661C108.328 39.4661 108.026 39.5392 107.761 39.6855C107.498 39.8318 107.29 40.0452 107.138 40.3259C106.986 40.6065 106.91 40.9468 106.91 41.3469ZM116.006 48.2072C115.495 48.2072 115.056 48.1415 114.689 48.0102C114.322 47.8818 114.016 47.7116 113.771 47.4997C113.529 47.2907 113.337 47.0668 113.194 46.828L114.035 46.2369C114.131 46.3623 114.252 46.5056 114.398 46.6668C114.544 46.831 114.744 46.9728 114.998 47.0922C115.255 47.2146 115.591 47.2758 116.006 47.2758C116.561 47.2758 117.019 47.1414 117.381 46.8727C117.742 46.6041 117.922 46.1831 117.922 45.6099V44.2128H117.833C117.755 44.3382 117.645 44.4934 117.501 44.6785C117.361 44.8606 117.158 45.0233 116.892 45.1666C116.63 45.3069 116.274 45.3771 115.827 45.3771C115.271 45.3771 114.773 45.2457 114.331 44.983C113.892 44.7203 113.544 44.3382 113.288 43.8366C113.034 43.3351 112.907 42.7261 112.907 42.0096C112.907 41.3051 113.031 40.6916 113.279 40.1691C113.526 39.6437 113.871 39.2377 114.313 38.9511C114.755 38.6615 115.265 38.5167 115.845 38.5167C116.292 38.5167 116.648 38.5914 116.91 38.7406C117.176 38.8869 117.379 39.0541 117.519 39.2422C117.663 39.4273 117.773 39.5795 117.851 39.6989H117.958V38.6063H118.979V45.6816C118.979 46.2727 118.845 46.7533 118.576 47.1235C118.311 47.4967 117.952 47.7698 117.501 47.943C117.054 48.1191 116.555 48.2072 116.006 48.2072ZM115.97 44.4277C116.394 44.4277 116.752 44.3307 117.045 44.1367C117.337 43.9426 117.56 43.6635 117.712 43.2993C117.864 42.9351 117.94 42.4992 117.94 41.9917C117.94 41.4961 117.866 41.0588 117.716 40.6796C117.567 40.3005 117.346 40.0034 117.054 39.7885C116.761 39.5735 116.4 39.4661 115.97 39.4661C115.522 39.4661 115.149 39.5795 114.85 39.8064C114.555 40.0333 114.333 40.3378 114.183 40.7199C114.037 41.1021 113.964 41.526 113.964 41.9917C113.964 42.4693 114.038 42.8918 114.188 43.259C114.34 43.6232 114.564 43.9098 114.859 44.1188C115.158 44.3247 115.528 44.4277 115.97 44.4277Z" fill="white"/>
</svg>
